<?xml version="1.0" encoding="utf-8"?>
<!-- Generator: Adobe Illustrator 24.2.0, SVG Export Plug-In . SVG Version: 6.00 Build 0)  -->
<svg version="1.1" id="Layer_1" xmlns="http://www.w3.org/2000/svg" xmlns:xlink="http://www.w3.org/1999/xlink" x="0px" y="0px"
	 viewBox="0 0 1000 1000" style="enable-background:new 0 0 1000 1000;" xml:space="preserve">
<style type="text/css">
	.st0{fill:#FFFFFF;}
	.st1{fill:#901A1C;}
	.st2{fill-rule:evenodd;clip-rule:evenodd;fill:#FFFFFF;}
</style>
<g>
	<rect class="st1" width="1000" height="1000"/>
	<g>
		<rect x="266.4" y="281.7" class="st2" width="141.1" height="143.5"/>
		<rect x="429.4" y="281.7" class="st2" width="141.1" height="143.5"/>
		<rect x="592.5" y="281.7" class="st2" width="141.1" height="143.5"/>
		<path class="st1" d="M338.3,404.5h-34.1V301.9h26.4c8.3,0,14.8,1.2,19.5,3.4c4.7,2.3,8.2,5.4,10.7,9.4c2.5,4,3.7,8.6,3.7,13.9
			c0,10.1-5.1,17.3-15.4,21.6c7.4,1.4,13.2,4.5,17.6,9.2c4.4,4.8,6.5,10.4,6.5,17c0,5.2-1.3,9.9-4,14c-2.7,4.1-6.5,7.5-11.6,10.1
			C352.4,403.2,346,404.5,338.3,404.5L338.3,404.5z M331,315h-12.4v30.8h9.6c7.7,0,13.1-1.5,16.4-4.5c3.2-3,4.9-6.8,4.9-11.6
			C349.5,319.9,343.3,315,331,315L331,315z M332.1,358.9h-13.5v32.5h14.2c7.9,0,13.2-0.6,16.1-1.9c2.8-1.3,5.1-3.2,6.8-5.8
			c1.7-2.7,2.6-5.5,2.6-8.5c0-3.1-0.9-6-2.7-8.6c-1.8-2.6-4.4-4.5-7.7-5.8C344.5,359.5,339.2,358.9,332.1,358.9L332.1,358.9z"/>
		<path class="st1" d="M501.9,404.5h-34.1V301.9h26.4c8.3,0,14.8,1.2,19.5,3.4c4.7,2.3,8.2,5.4,10.7,9.4c2.5,4,3.7,8.6,3.7,13.9
			c0,10.1-5.1,17.3-15.4,21.6c7.4,1.4,13.2,4.5,17.6,9.2c4.4,4.8,6.5,10.4,6.5,17c0,5.2-1.3,9.9-4,14c-2.7,4.1-6.5,7.5-11.6,10.1
			C516,403.2,509.6,404.5,501.9,404.5L501.9,404.5z M494.6,315h-12.4v30.8h9.6c7.7,0,13.1-1.5,16.4-4.5c3.2-3,4.9-6.8,4.9-11.6
			C513.1,319.9,507,315,494.6,315L494.6,315z M495.7,358.9h-13.5v32.5h14.2c7.9,0,13.2-0.6,16-1.9c2.8-1.3,5.1-3.2,6.8-5.8
			c1.7-2.7,2.6-5.5,2.6-8.5c0-3.1-0.9-6-2.7-8.6c-1.8-2.6-4.4-4.5-7.7-5.8C508.1,359.5,502.9,358.9,495.7,358.9L495.7,358.9z"/>
		<path class="st1" d="M705.3,380.7v16.1c-10.6,5.9-22.8,8.8-36.7,8.8c-11.2,0-20.8-2.3-28.6-6.9c-7.8-4.6-14-10.9-18.6-19
			c-4.6-8.1-6.8-16.8-6.8-26.2c0-14.9,5.2-27.5,15.7-37.7c10.5-10.2,23.4-15.3,38.7-15.3c10.6,0,22.3,2.8,35.3,8.4v15.8
			c-11.8-6.8-23.3-10.3-34.6-10.3c-11.5,0-21.1,3.7-28.7,11.1c-7.6,7.4-11.5,16.7-11.5,27.9c0,11.2,3.8,20.5,11.2,27.7
			c7.5,7.2,17.1,10.9,28.8,10.9C681.7,392.1,693.6,388.3,705.3,380.7L705.3,380.7z"/>
	</g>
	<g>
		<path class="st0" d="M287.3,494.9h25.5v187.6h-23.1L164.3,538v144.5H139V494.9h21.8l126.5,145.7V494.9z"/>
		<path class="st0" d="M353,494.9h106.4v23.9h-79.5V576h76.8v24h-76.8v58.3h82.1v23.9H353V494.9z"/>
		<path class="st0" d="M729.6,494.9h26.8l-75.9,188.5h-5.9l-61.4-152.6l-62,152.6h-5.8l-75.6-188.5h27.1l51.7,129.4l52.1-129.4h25.4
			l52.3,129.4L729.6,494.9z"/>
		<path class="st0" d="M823.6,603.9l-20.4-12.4c-12.8-7.8-21.9-15.5-27.3-23.1c-5.4-7.6-8.1-16.3-8.1-26.1c0-14.8,5.1-26.8,15.4-36
			c10.3-9.2,23.6-13.8,40-13.8c15.7,0,30,4.4,43.1,13.2v30.5c-13.5-13-28.1-19.5-43.7-19.5c-8.8,0-16,2-21.6,6.1
			c-5.6,4.1-8.5,9.3-8.5,15.6c0,5.6,2.1,10.9,6.2,15.8c4.2,4.9,10.8,10.1,20,15.5l20.5,12.1c22.9,13.7,34.3,31.1,34.3,52.2
			c0,15-5,27.3-15.1,36.7c-10.1,9.4-23.2,14.1-39.3,14.1c-18.5,0-35.4-5.7-50.6-17.1v-34.1c14.5,18.4,31.3,27.6,50.4,27.6
			c8.4,0,15.4-2.3,21-7c5.6-4.7,8.4-10.5,8.4-17.6C848.4,625,840.1,614.2,823.6,603.9z"/>
	</g>
</g>
</svg>
