<?xml version="1.0" standalone="no"?>
<!DOCTYPE svg PUBLIC "-//W3C//DTD SVG 20010904//EN"
 "http://www.w3.org/TR/2001/REC-SVG-20010904/DTD/svg10.dtd">
<svg version="1.0" xmlns="http://www.w3.org/2000/svg"
 width="400.000000pt" height="400.000000pt" viewBox="0 0 400.000000 400.000000"
 preserveAspectRatio="xMidYMid meet">

<g transform="translate(0.000000,400.000000) scale(0.100000,-0.100000)"
fill="#000000" stroke="none">
<path d="M0 2000 l0 -2000 2000 0 2000 0 0 2000 0 2000 -2000 0 -2000 0 0
-2000z m1660 690 c0 -17 -7 -20 -42 -21 -60 0 -108 -19 -132 -52 -21 -28 -21
-36 -21 -600 0 -315 3 -584 8 -599 11 -41 59 -69 127 -75 50 -5 60 -9 60 -24
0 -18 -16 -19 -370 -19 -354 0 -370 1 -370 19 0 15 10 19 62 24 37 3 71 13 87
25 51 37 52 51 49 663 l-3 567 -24 26 c-27 29 -77 46 -133 46 -31 0 -38 4 -38
20 0 20 7 20 370 20 363 0 370 0 370 -20z m1340 -175 l0 -195 -23 0 c-19 0
-25 10 -44 69 -54 172 -138 231 -329 231 l-75 0 3 -604 3 -604 24 -26 c27 -29
77 -46 134 -46 30 0 37 -4 37 -20 0 -20 -7 -20 -370 -20 -363 0 -370 0 -370
20 0 17 7 20 43 21 59 0 107 19 131 52 21 28 21 37 24 629 l3 601 -104 -5
c-122 -7 -176 -26 -226 -83 -38 -43 -64 -97 -81 -167 -11 -41 -16 -48 -36 -48
l-24 0 0 195 0 195 640 0 640 0 0 -195z"/>
</g>
</svg>
