<svg xmlns="http://www.w3.org/2000/svg" width="124" height="124" viewBox="0 0 173.541 173.542">
<title>Psiwell</title>
  <path d="M81.934.012l-1.117.014c-.576.693-1.129 1.404-1.753 2.06-.376.37-.834.698-1.375.81-.76.156-1.54.046-2.306-.007-.913-.074-1.831-.038-2.746-.002-1.42.078-2.835.216-4.246.386-1.808.223-3.612.5-5.384.912-.595.144-1.19.307-1.737.573a8.307 8.307 0 0 0-1.523 1.015 4.56 4.56 0 0 0-1.145 1.472c-.305.624-.468 1.298-.615 1.967-.057.256-.056.522-.132.774-.123.356-.389.664-.725.863-.409.223-.893.255-1.353.302-1.025.094-2.06.132-3.072.321-.811.147-1.622.379-2.316.81-.32.201-.603.453-.936.639-.893.543-1.889.911-2.873 1.282a249.141 249.141 0 0 1-4.835 1.737c-2.191.77-4.39 1.52-6.606 2.226-.977.315-1.965.609-2.897 1.031-.725.333-1.376.794-1.964 1.312-.335.292-.66.595-.966.913a3.86 3.86 0 0 0-.858 1.465c-.184.55-.368 1.115-.728 1.59-.473.676-1.039 1.287-1.559 1.93-.634.76-1.247 1.554-1.628 2.456a4.59 4.59 0 0 0-.337 1.978c.036.837.261 1.654.518 2.452.25.764.527 1.52.769 2.287.054.195.04.444-.164.56-.252.155-.561.173-.85.217-.878.11-1.765.121-2.647.181-1.015.056-2.04.135-3.016.417-.986.294-1.882.797-2.73 1.345-1.166.743-2.287 1.546-3.407 2.348-1.534 1.107-3.039 2.253-4.44 3.507a14.876 14.876 0 0 0-1.657 1.712c-.342.43-.658.9-.773 1.432-.052.322-.046.652-.142.967-.237 1.028-.643 2.015-1.124 2.963-.28.565-.554 1.135-.74 1.734a13.062 13.062 0 0 0-.605 2.86 12.63 12.63 0 0 1-.82 3.257c-.47 1.183-1.068 2.317-1.512 3.51-.143.333-.213.702-.142 1.059.077.587.319 1.14.587 1.671.445.834 1.017 1.611 1.343 2.498.119.297.188.632.07.94-.192.568-.504 1.09-.76 1.633-.683 1.394-1.152 2.872-1.474 4.374a21.786 21.786 0 0 0-.466 3.854c-.018.435-.039.873.012 1.306.07.451.374.826.69 1.155.357.36.765.67 1.183.964.725.501 1.531.899 2.385 1.168 1.004.328 2.05.522 3.092.709 1.273.216 2.551.397 3.831.568 3.322.431 6.648.828 9.972 1.241a1181.552 1181.552 0 0 1 19.68 2.625c2.118.312 4.235.634 6.344.999 1.61.279 3.218.571 4.816.91 1.308.272 2.596.623 3.896.923 1.426.341 2.872.605 4.323.831 1.176.189 2.358.36 3.505.675 1.06.282 2.09.659 3.075 1.12.612.277 1.213.585 1.864.778.566.221 1.088.526 1.624.803 1.195.634 2.371 1.3 3.53 1.989.756.445 1.497.914 2.19 1.443 1.552 1.141 3.004 2.408 4.286 3.816a21.604 21.604 0 0 1 3.085 4.321c.662 1.226 1.193 2.508 1.693 3.798.436 1.143.845 2.298 1.147 3.48.142.584.225 1.18.363 1.766.228 1.01.512 2.011.634 3.039.183 1.323.22 2.658.359 3.984.106 1.138.232 2.275.261 3.417.056 1.502.05 3.005.04 4.508-.01 1.135-.028 2.27-.054 3.405a312.545 312.545 0 0 1-.204 5.934c-.08 1.755-.177 3.51-.304 5.262-.1 1.377-.22 2.753-.433 4.12-.12.782-.214 1.567-.284 2.355a67.763 67.763 0 0 1-.318 2.91 151.24 151.24 0 0 1-.84 5.556 114.68 114.68 0 0 1-.82 4.238c.939.957 1.856 1.934 2.84 2.85.282.263.583.505.883.75.338.2.679.406.957.68.617.547 1.129 1.188 1.61 1.842.393.554.757 1.135.977 1.771.077.192.033.392-.002.583-.008.129.188.27.26.11.025-.074-.011-.147-.042-.213.303.06.511.311.815.372.375.118.838.075 1.124-.203.268-.238.348-.596.387-.927.113-.759.083-1.528.033-2.29-.05-.562-.15-1.12-.28-1.67-.177-.89-.237-1.797-.303-2.7-.132-1.937-.204-3.878-.254-5.82a392.132 392.132 0 0 1-.122-8.057c-.02-2.71-.011-5.418.003-8.127.014-2.753.056-5.505.1-8.257.036-2.02.086-4.039.14-6.058.082-2.855.185-5.71.335-8.564.093-1.679.196-3.357.36-5.032.127-1.297.331-2.588.605-3.865.183-.879.395-1.752.638-2.617.267-.953.58-1.895.935-2.822a27.524 27.524 0 0 1 1.78-3.737 24.074 24.074 0 0 1 4.278-5.419 28.878 28.878 0 0 1 2.977-2.459 47.654 47.654 0 0 1 3.498-2.29 50.534 50.534 0 0 1 2.744-1.521c.911-.47 1.841-.908 2.785-1.317a33.381 33.381 0 0 1 3.175-1.196c.698-.223 1.41-.406 2.127-.567.582-.132 1.172-.273 1.696-.554.664-.318 1.379-.526 2.083-.751 1.539-.472 3.102-.872 4.667-1.263a182.59 182.59 0 0 1 5.203-1.185c2.493-.533 4.993-1.043 7.465-1.66a360.44 360.44 0 0 1 5.48-1.267c3.682-.83 7.368-1.644 11.06-2.438 1.879-.406 3.759-.81 5.648-1.175a39.054 39.054 0 0 1 2.67-.415c.258-.035.506-.13.71-.282.247-.171.518-.307.8-.418.933-.399 1.935-.63 2.871-1.02.61-.26 1.19-.606 1.644-1.074.464-.452.737-1.036.972-1.615.106-.211.167-.466.38-.606.165-.158.06-.402.11-.598.06-1.216.068-2.434.076-3.652-.003-1.409 0-2.82-.11-4.226.01-.228-.183-.392-.278-.586-.092-.206-.137-.429-.192-.646-.178-.763-.195-1.548-.207-2.326-.017-.223-.01-.46-.1-.668-.14-.173-.427-.2-.52-.413-.398-.603-.716-1.248-1.03-1.892-.629-1.28-1.217-2.579-1.921-3.825a37.152 37.152 0 0 0-2.428-3.81c-.782-1.087-1.555-2.18-2.26-3.313a42.684 42.684 0 0 1-2.175-3.884c-.7-1.382-1.397-2.766-2.19-4.104-.877-1.518-1.815-3.005-2.67-4.534a9.25 9.25 0 0 0-1.191-1.677 11.29 11.29 0 0 0-1.976-1.787c-.467-.317-.978-.591-1.537-.737-.715-.171-1.458-.137-2.19-.155-1.182-.012-2.365-.009-3.549-.008-.202-.039-.477.093-.618-.101-.102-.26-.15-.536-.205-.808-.217-1.24-.312-2.497-.521-3.74-.146-.853-.345-1.705-.699-2.506-.304-.67-.725-1.302-1.288-1.807-.588-.55-1.29-.976-2.008-1.361-1.301-.724-2.615-1.428-3.9-2.18-.72-.424-1.437-.856-2.112-1.342-1.08-.768-2.126-1.578-3.214-2.336a19.643 19.643 0 0 0-1.648-1.05 8.11 8.11 0 0 0-1.934-.74c-.666-.178-1.34-.34-1.975-.607-.55-.223-1.068-.515-1.635-.703-.925-.338-1.892-.56-2.85-.802a879.671 879.671 0 0 0-7.37-1.737c-1.224-.276-2.448-.56-3.689-.762-.816-.128-1.65-.21-2.475-.107-.673.083-1.344.236-1.952.525-.55.27-1.015.683-1.34 1.178-.314.467-.519.99-.691 1.516-.273.886-.418 1.802-.544 2.715-.176 1.344-.262 2.696-.341 4.048-.096 1.833-.164 3.667-.245 5.501-.105 2.303-.221 4.606-.41 6.904-.08 1.004-.187 2.012-.458 2.99a4.594 4.594 0 0 1-.335.925c-.081.162-.362.23-.44.028-.123-.223-.12-.485-.162-.728-.09-.77-.117-1.545-.149-2.318-.08-2.365-.121-4.732-.201-7.097-.068-1.83-.134-3.661-.332-5.484-.228-2.197-.439-4.397-.723-6.589-.155-1.08-.35-2.162-.742-3.19A13.792 13.792 0 0 0 98.776 5.5c-.492-.813-1.055-1.594-1.727-2.287-.4-.4-.826-.788-1.32-1.087-.464-.28-.979-.469-1.498-.632-1-.319-2.034-.533-3.067-.731A47.271 47.271 0 0 0 84.97.037a42.002 42.002 0 0 0-2.654-.03c-.127.002-.255.004-.383.004zm14.01 1.524c-.203.109.064.463.231.305.099-.131-.065-.352-.232-.305zm-11.976.903c.407.044.757.326.901.68.16.342.157.723.2 1.088.137 1.68.192 3.365.244 5.049.048 1.463.083 2.928.224 4.387.047.455.121.91.256 1.35.234.929.314 1.882.41 2.83.175 1.903.272 3.812.382 5.72.122 2.14.211 4.282.44 6.414.056.398.126.794.155 1.195.09 1.006.143 2.015.197 3.024.1 1.976.183 3.952.26 5.93.103 2.761.202 5.523.288 8.286.048 1.393.114 2.787.17 4.18-.004.419-.015.838-.013 1.256.052.786.069 1.574.105 2.36.08 1.956.157 3.911.255 5.865.078 1.6.164 3.201.263 4.8.135 2.189.283 4.376.464 6.561.119 1.482.252 2.962.388 4.442.238 2.645.514 5.286.75 7.93a210.409 210.409 0 0 1 .52 7.532 143.9 143.9 0 0 1 .143 3.797c.049 2.315.035 4.631-.074 6.945-.036.62-.121 1.24-.326 1.832-.276.814-.677 1.595-.832 2.442-.073.383-.08.792.093 1.153.11.246.32.437.434.68.154.307.276.627.387.949.148.446.241.907.283 1.373a8.432 8.432 0 0 1-.09 2.384c-.08.38-.236.757-.529 1.038-.21.164-.53.013-.583-.223-.157-.334-.227-.696-.337-1.044a45.596 45.596 0 0 0-1.206-3.674 40.952 40.952 0 0 0-1.548-3.53 66.292 66.292 0 0 0-1.868-3.513c-.681-1.175-1.409-2.333-2.281-3.394a11.814 11.814 0 0 0-2.114-2.024c-.347-.262-.694-.542-.908-.916-.267-.43-.388-.927-.686-1.342-.454-.693-1.01-1.323-1.58-1.934-.525-.546-1.078-1.075-1.717-1.504a1.846 1.846 0 0 0-.769-.255c-.996-.158-2.014-.021-3.014-.143-.957-.125-1.861-.461-2.776-.74a119.06 119.06 0 0 0-7.323-2.044 79.258 79.258 0 0 0-4.068-.904c-1.536-.3-3.088-.514-4.636-.751-3.302-.484-6.608-.94-9.915-1.39-3.4-.468-6.803-.919-10.203-1.388a81.711 81.711 0 0 1-4.238-.709c-1.643-.328-3.28-.695-4.946-.902-1.67-.22-3.352-.353-5.03-.511-2.61-.233-5.225-.443-7.819-.814-1.221-.187-2.442-.404-3.623-.758-.895-.273-1.778-.603-2.58-1.068-.458-.27-.893-.584-1.244-.972-.225-.257-.403-.574-.391-.915-.04-.806.086-1.612.275-2.396.097-.38.222-.752.356-1.122.416-1.274.586-2.602.75-3.922.171-1.503.257-3.012.305-4.523.057-1.574.035-3.151.127-4.725.06-.884.191-1.767.449-2.62.343-1.2.868-2.348 1.203-3.55.256-.922.388-1.867.535-2.808.119-.71.326-1.411.667-2.057.41-.788 1.004-1.481 1.38-2.286a7.78 7.78 0 0 0 .456-1.193c.189-.56.454-1.103.842-1.567.46-.573.993-1.09 1.52-1.607a25.407 25.407 0 0 1 3.32-2.7c1.104-.752 2.274-1.428 3.53-1.93a9.807 9.807 0 0 1 3.171-.706c.511-.028 1.037-.022 1.527.13.233.071.425.219.645.314.235.099.493.146.75.142.143.042-.071.115-.124.132a.575.575 0 0 0-.26.15c.238.085.496.056.744.068.213-.027.466.054.639-.102-.045-.097-.246-.106-.2-.24.333-.035.678-.037.99-.166a7.586 7.586 0 0 0 2.172-1.116c.295-.234.51-.559.576-.918.132-.589.043-1.203-.15-1.77a3.066 3.066 0 0 0-.843-1.269c-.39-.35-.634-.809-.885-1.25-.342-.655-.683-1.32-.858-2.035-.113-.457-.037-.941.137-1.377.288-.62.781-1.125 1.255-1.625.796-.834 1.656-1.615 2.386-2.503.356-.434.677-.908.832-1.441.072-.217.056-.447.111-.665.087-.258.288-.46.458-.672.43-.509.954-.948 1.556-1.27.913-.516 1.915-.87 2.91-1.218 1.463-.501 2.953-.93 4.446-1.345.97-.264 1.953-.51 2.96-.608.602-.042 1.206-.039 1.809-.047-.028.503-.078 1.005-.06 1.509.047.395.32.722.596 1.007.393.429.787.859 1.123 1.33 1.108 1.447 2.078 2.98 3.08 4.493.578.88 1.167 1.756 1.824 2.587.238.3.495.593.804.831.146.1.344.19.523.113.265-.138.384-.435.401-.707.036-.498-.164-.976-.388-1.419-.358-.651-.873-1.21-1.289-1.827a44.466 44.466 0 0 1-1.584-2.454c-.858-1.427-1.697-2.865-2.422-4.356a9.789 9.789 0 0 1-.49-1.16c-.056-.219-.135-.454-.045-.675.126-.25.415-.36.645-.508.706-.41 1.382-.863 2.043-1.332.68-.476 1.343-.973 2.042-1.424.422-.267.87-.52 1.371-.627.358-.07.742-.017 1.059.157.47.225.8.65 1.298.83.546.205 1.154.215 1.729.128a4.373 4.373 0 0 0 2.296-1.116c.41-.355.783-.778.944-1.289.205-.646.19-1.326.199-1.994-.006-.733-.038-1.467.014-2.199.03-.275.161-.54.376-.73.362-.376.83-.652 1.336-.823.812-.3 1.679-.427 2.537-.545 1.312-.173 2.634-.254 3.955-.336 2.246-.126 4.495-.184 6.741-.302a65.612 65.612 0 0 0 3.048-.221c.279-.03.563-.075.81-.207.693-.322 1.241-.848 1.8-1.337.38-.333.787-.643 1.254-.86.313-.152.662-.25 1.017-.234zm5.002.097c1.396.07 2.77.437 4.011 1.04.88.426 1.698.984 2.337 1.697.727.806 1.25 1.755 1.654 2.736.387.965.655 1.967.877 2.976.35 1.604.517 3.237.635 4.87.124 1.798.19 3.6.245 5.402.054 1.871.088 3.743.127 5.615.057 3.167.103 6.334.191 9.5.04 1.282.097 2.563.206 3.84.09.893.229 1.803.644 2.62.15.31.36.607.674.787.43.267.966.36 1.475.314a2.036 2.036 0 0 0 1.023-.4c.354-.358.494-.842.648-1.296.264-.847.423-1.719.58-2.588.28-1.648.465-3.308.692-4.962.302-2.247.608-4.493.913-6.74.198-1.61.277-3.23.297-4.85.04-2.075.04-4.15.066-6.225.019-1.238.036-2.478.114-3.715.052-.756.146-1.51.308-2.254l.278-1.35c.69.003 1.374.091 2.06.143 1.67.143 3.34.288 5.008.444 1.355.145 2.709.323 4.04.601.738.158 1.478.342 2.153.67.592.259 1.217.44 1.837.626 1.367.402 2.757.73 4.13 1.114 1.05.3 2.096.635 3.075 1.107.935.46 1.794 1.047 2.585 1.702 1.096.886 2.115 1.857 3.253 2.697.748.542 1.569.99 2.416 1.38.874.411 1.776.767 2.643 1.19.674.342 1.314.78 1.76 1.374.532.71.818 1.55 1.029 2.388.247.974.394 1.966.573 2.952.132.762.279 1.523.46 2.276.241.724.627 1.402 1.11 2.009.215.259.454.518.779.655.114.052.35.182.183.306-.096.16.154.123.247.15.462.059.93.036 1.394.014.2-.035.481 0 .619-.146-.063-.196-.33-.066-.483-.085-.084-.033.113-.085.134-.121.36-.211.753-.362 1.14-.518.59-.222 1.216-.38 1.853-.389.672.008 1.338.21 1.887.574.684.43 1.254 1.003 1.725 1.633.63.872 1.138 1.815 1.664 2.743a388.381 388.381 0 0 1 3.366 6.324c.442.882.902 1.76 1.218 2.69.127.395.219.82.127 1.23-.088.364-.35.66-.627.917-.817.792-1.778 1.435-2.742 2.058-1.397.904-2.844 1.737-4.3 2.554-1.35.762-2.713 1.506-4.019 2.335-.689.438-1.348.914-2.034 1.356-.776.511-1.581.982-2.396 1.437-.859.47-1.733.92-2.642 1.3a7.948 7.948 0 0 1-1.383.447c-.284.065-.56.173-.787.348-.481.327-.832.789-1.14 1.258-.39.607-.734 1.243-1.193 1.808-.938 1.248-2.014 2.397-3.097 3.534-1.104 1.154-2.25 2.272-3.398 3.39-1.128 1.096-2.259 2.192-3.33 3.338-.147.176-.327.335-.455.519-.068.13.085.212.206.163.214-.035.379-.177.56-.278.786-.528 1.471-1.173 2.246-1.714 1.138-.83 2.312-1.611 3.485-2.396 1.781-1.183 3.57-2.358 5.332-3.566a65.217 65.217 0 0 0 2.937-2.174c.79-.62 1.602-1.213 2.434-1.782 1.274-.872 2.477-1.83 3.73-2.727 2.137-1.53 4.283-3.049 6.445-4.547 1.054-.73 2.107-1.46 3.17-2.176a37.547 37.547 0 0 1 2.62-1.648c.375-.213.753-.427 1.153-.598.361-.15.766-.244 1.16-.172.656.1 1.236.453 1.703.883.638.578 1.131 1.284 1.504 2.035.262.548.461 1.131.503 1.733.035.384.003.78.142 1.149.226.008.14-.272.083-.39.088-.08.13.126.193.166.32.45.577.937.853 1.412.381.685.7 1.4.94 2.14.404 1.179.7 2.388.97 3.6.278 1.24.494 2.492.668 3.75.145 1.08.253 2.17.228 3.262-.018.514-.065 1.033-.213 1.53-.14.452-.45.852-.856 1.126-.501.364-1.077.622-1.653.863-.822.33-1.675.586-2.527.838a56.989 56.989 0 0 1-5.05 1.192c-.933.17-1.875.317-2.826.351-.515.026-1.053.067-1.511.311-.628.307-1.31.496-1.98.696-.944.26-1.895.498-2.851.713-2.112.483-4.24.909-6.362 1.352-3.861.8-7.724 1.596-11.58 2.42-1.372.302-2.742.616-4.101.966-2.399.625-4.757 1.377-7.122 2.103-1.891.584-3.78 1.178-5.697 1.681-.72.188-1.449.358-2.192.445-.21.037-.387-.163-.276-.347.087-.238.238-.45.37-.668.359-.54.773-1.043 1.179-1.55.78-.96 1.623-1.882 2.595-2.677.94-.785 1.983-1.458 3.074-2.045.745-.408 1.518-.793 2.155-1.347.352-.308.685-.669.812-1.114a1.46 1.46 0 0 0-.003-.702.525.525 0 0 0-.417-.37c-.4-.076-.808.031-1.176.177-.664.273-1.278.641-1.874 1.025a31.712 31.712 0 0 0-2.141 1.567 47.49 47.49 0 0 0-4.68 4.306c-1.411 1.479-2.711 3.048-4.141 4.51a37.21 37.21 0 0 1-2.673 2.524c-1.44 1.227-2.981 2.342-4.46 3.525a120.37 120.37 0 0 0-2.29 1.863c-.345.273-.693.553-1.104.738-.3.109-.648.134-.947.01-.242-.123-.223-.42-.378-.602-.244-.15-.434.125-.59.262-.335.325-.634.696-.799 1.125-.18.431-.24.895-.311 1.35-.089.682-.15 1.367-.302 2.039-.124.574-.289 1.151-.602 1.662-.131.181-.28.451-.556.414-.246-.063-.336-.31-.422-.509-.172-.415-.26-.855-.346-1.291-.188-1.032-.284-2.076-.375-3.118-.178-2.192-.262-4.39-.465-6.58-.114-1.33-.282-2.657-.418-3.987-.15-1.448-.264-2.899-.374-4.35-.102-1.335-.21-2.67-.35-4.003-.16-1.557-.329-3.113-.457-4.673-.152-1.71-.272-3.423-.385-5.136-.151-2.33-.288-4.662-.414-6.994-.123-2.336-.24-4.673-.349-7.01-.423-8.997-.838-17.994-1.26-26.992-.123-2.535-.26-5.069-.433-7.601a226.012 226.012 0 0 0-.33-4.218c-.19-2.12-.424-4.235-.654-6.351-.18-1.669-.357-3.339-.434-5.015-.022-.615.023-1.229.053-1.843.588-.031 1.177-.083 1.767-.065zm-3.916 11.617c-.017.118-.023.25.053.354.155-.117.13-.36-.02-.472l-.032.118zm48.05 3.727c-.425.083-.748.378-1.037.662-.888.886-1.581 1.92-2.285 2.936a48.832 48.832 0 0 0-1.836 2.889 4.809 4.809 0 0 0-.363.795c-.164.387-.377.753-.563 1.13-.957 1.856-1.941 3.7-2.92 5.546a183.31 183.31 0 0 0-2.986 5.85c-.703 1.474-1.405 2.953-1.953 4.486-.173.514-.353 1.035-.386 1.577-.011.436.1.872.295 1.266.125.213.245.46.493.57.202.068.417-.061.523-.22.3-.423.46-.915.607-1.399.169-.577.309-1.163.55-1.719.412-1.011.899-1.994 1.39-2.974a120.549 120.549 0 0 1 3.26-5.954c1.216-2.094 2.532-4.136 3.757-6.226.499-.858.999-1.718 1.423-2.612.429-.888.925-1.749 1.499-2.562.24-.356.474-.717.67-1.097-.07-.086.13-.246.129-.086.003.091.17.107.133-.004.119-.586.103-1.186.13-1.78l.036-1.136-.566.062zm-26.466 3.99c-.03.388-.025.776-.004 1.164.003.067.063.131.057.017.055-.307.038-.62.029-.93-.032-.127.007-.27-.063-.39-.006.047-.011.094-.018.14zm23.678.533c-.005.245-.19.435-.298.646a7.521 7.521 0 0 1-.58.804c-.147-.141.065-.325.087-.481.131-.303.284-.602.506-.856a.556.556 0 0 1 .277-.153l.008.04zm.517.49c.187.113.124.36.048.52-.165.414-.347.83-.64 1.182-.179.063-.15-.193-.111-.285.061-.31.2-.598.327-.887.086-.184.179-.37.325-.52l.034-.01zm25.148 7.97c-.23.1-.124.467.081.518.2-.079.161-.37.034-.497a.121.121 0 0 0-.115-.022zm-.138 11.736c-.342.13-.544.447-.682.753a1.815 1.815 0 0 0-.17.943c.039.21.263.392.495.355.324-.061.544-.348.613-.637a2.6 2.6 0 0 0 .066-1.2c-.032-.13-.17-.258-.321-.214zm-138.328 4.96c-.386.093-.67.39-.857.705-.19.32-.544.503-.871.679-.438.22-.906.39-1.39.493-.469.086-.955.064-1.416.187a3.862 3.862 0 0 0-.683.222c-.241.13-.349.408-.314.659.026.477.386.898.835 1.1.326.164.707.23 1.074.181.393-.083.715-.354.912-.677a2.03 2.03 0 0 0 .27-.562c.024-.317.272-.557.484-.782.372-.374.8-.698 1.271-.955.218-.08.48-.086.65-.255.196-.226.342-.523.279-.82-.03-.097-.124-.204-.244-.175zm98.935 2.395c-.255.083-.43.285-.604.466-.445.55-.703 1.204-.938 1.85a4.5 4.5 0 0 0-.273 1.667l.003.32c.522-.562 1.069-1.108 1.516-1.727.104-.176.125-.481.394-.498.242-.033.39-.255.44-.462.117-.372.126-.775.014-1.148-.071-.213-.235-.43-.484-.47l-.035-.002zM19.9 53.072c.026.313.205.586.347.861.424.754 1.082 1.361 1.776 1.897.96.749 2.006 1.393 3.058 2.021 1.502.897 3.048 1.727 4.545 2.63 1.006.603 1.999 1.23 2.942 1.918.192.15.399.295.522.505.116.198.255.382.429.54.155.172.367.348.475.53-.082.045-.246-.132-.268.03.109.178.377.131.562.181.33.037.663.043.99.108.65.098 1.302.237 1.91.484.617.265 1.096.732 1.573 1.172.54.508 1.071 1.026 1.65 1.496a7.7 7.7 0 0 0 1.163.807c.764.374 1.53.752 2.24 1.212.786.502 1.543 1.05 2.224 1.675.402.371.769.774 1.175 1.142a7.578 7.578 0 0 0 1.753 1.162c.72.36 1.433.754 2.013 1.3a38.406 38.406 0 0 1 1.904 1.81c.208.225.42.45.596.698.127.18.03.473.252.593.191.09.413.037.614.086.52.07 1.038.218 1.476.498.852.508 1.605 1.145 2.36 1.77 2.906 2.426 5.66 5.004 8.454 7.541.735.663 1.467 1.33 2.25 1.944.625.478 1.309.886 2.032 1.219.649.314 1.312.605 1.995.846.177.054.395.146.569.035.155-.12.155-.333.15-.507-.005-.346-.002-.692-.044-1.037-.048-.199.015-.473-.197-.597-.248-.08-.51-.12-.745-.238a11.223 11.223 0 0 1-1.44-.734 1.65 1.65 0 0 1-.725-.818c-.139-.34-.256-.7-.516-.98-.489-.527-1.165-.847-1.728-1.293-1.062-.789-2.068-1.64-3.081-2.483-1.357-1.148-2.715-2.295-4.043-3.472-.732-.642-1.454-1.293-2.187-1.933-.47-.395-.972-.752-1.467-1.117-.917-.733-1.752-1.55-2.598-2.354-.932-.898-1.852-1.807-2.807-2.684-.484-.433-.971-.868-1.521-1.228-.5-.304-1.04-.547-1.528-.867-.974-.589-1.88-1.269-2.844-1.872a23.228 23.228 0 0 0-2.03-1.142c-.759-.383-1.502-.799-2.166-1.316-.423-.328-.903-.583-1.39-.817-.636-.338-1.192-.788-1.756-1.22-.875-.64-1.807-1.207-2.742-1.767-1.258-.733-2.525-1.453-3.77-2.207a62.097 62.097 0 0 1-2.712-1.75c-.673-.456-1.352-.922-2.124-1.224-.97-.389-1.987-.67-2.956-1.062-1.258-.48-2.464-1.07-3.681-1.633a9.732 9.732 0 0 0-.906-.362zm67.87 7.399c-.052.43-.041.866.019 1.294-.005.091.152.194.163.05.066-.247.02-.505 0-.756-.028-.231-.044-.467-.113-.691-.07-.151-.053.064-.069.103zm22.856-.092c-.4.147-.694.454-.998.726-.381.36-.725.757-1.004 1.192-.184.37-.23.783-.377 1.166-.409 1.284-.953 2.526-1.532 3.75a68.077 68.077 0 0 0-1.5 3.282 37.535 37.535 0 0 0-1.239 3.4 43.474 43.474 0 0 0-1.196 4.98 25.734 25.734 0 0 0-.358 3.457c-.013.494-.018.991.06 1.482.029.177.293.24.372.056.163-.238.278-.502.4-.76.576-1.257 1.077-2.546 1.705-3.782.144-.294.322-.572.497-.85a1.78 1.78 0 0 0 .255-.758c.046-.314.09-.628.17-.936a70.18 70.18 0 0 1 .773-3.061c.463-1.702.953-3.397 1.477-5.084a47.537 47.537 0 0 1 1.285-3.6 30.67 30.67 0 0 1 .756-1.706c.262-.566.534-1.13.746-1.714.105-.335.134-.707.004-1.04-.043-.111-.158-.226-.296-.2zm-40.345.61c-.516.057-1.02.3-1.326.7-.178.238-.265.542-.197.829.08.46.334.87.57 1.273.567.921 1.243 1.78 1.779 2.719.46.755.877 1.534 1.222 2.342.357.793.7 1.603 1.233 2.311.276.348.618.669.756 1.093.218.612.513 1.195.787 1.785.819 1.702 1.684 3.383 2.49 5.09.388.832.776 1.666 1.092 2.525.091.251.165.508.23.767.037.135-.095.319-.028.419.07-.069.15-.259.284-.171.145.183.145.428.226.638.039.101.085.275.235.205.197-.07.207.196.282.306.17.446.295.907.44 1.36.216.683.464 1.356.703 2.032.279.77.566 1.536.857 2.302.889 2.261 1.891 4.481 2.866 6.711.558 1.268 1.112 2.54 1.53 3.857.252.766.587 1.505.933 2.237.306.633.633 1.26 1.004 1.862.158.243.356.465.598.637.242.115.358-.217.292-.387-.024-.635-.167-1.258-.29-1.88-.471-2.304-1.136-4.569-1.889-6.804a81.481 81.481 0 0 0-1.433-3.9 75.413 75.413 0 0 0-2.643-5.911c-.603-1.21-1.273-2.389-1.823-3.62-.097-.203-.183-.402-.206-.623-.095-.151-.31.035-.431-.102-.075-.03-.182-.238-.024-.168.146.062.27-.063.238-.202a4.028 4.028 0 0 0-.065-.743c-.008-.17-.184-.264-.228-.41.03-.122.096-.275-.064-.352-.241-.245-.402-.548-.597-.825a30.652 30.652 0 0 1-1.155-1.872c-.177-.343-.316-.703-.488-1.048a77.256 77.256 0 0 1-1.097-2.39c-.384-.898-.901-1.737-1.43-2.565a29.933 29.933 0 0 1-.911-1.528c-.57-1-1.09-2.025-1.602-3.052-.657-1.342-1.286-2.699-1.802-4.094-.097-.271-.182-.546-.26-.822-.011-.191-.045-.457-.28-.515a1.516 1.516 0 0 0-.379-.015zM.622 71.83c-.017.119-.02.252.054.356.156-.117.13-.362-.02-.474l-.034.118zm126.388 1.369a.59.59 0 0 0-.391.54c-.05.092.105.222.154.09.15-.164.294-.342.362-.553.004-.058-.07-.1-.125-.077zm-107.422.834a.807.807 0 0 0-.65.54.921.921 0 0 0 .03.79c.213.28.613.377.963.332.395-.04.752-.37.74-.753.018-.444-.377-.86-.845-.906a.871.871 0 0 0-.238-.003zm153.059.4c-.186.117-.376.245-.484.435.183.146.527.075.591-.154.035-.088.053-.302-.107-.28zm-48.65 3.298c-.148.133-.356.226-.441.41-.048.156.234.11.291.016.092-.116.284-.294.175-.435zm-44.752 1.04c.147.155.354.292.38.513-.246-.092-.374-.326-.532-.51l-.332-.434.484.431zm52.087 2.606c-.085.01-.256-.006-.251.112.149.062.329.06.47-.018-.02-.093-.14-.098-.22-.094zm-3.68.788c-.09.016-.09.145.017.107.169.029.351.033.508-.04-.149-.113-.355-.067-.526-.068zm13.244.777c-.088.018-.09.144.018.107.168.029.351.033.509-.04-.15-.113-.355-.067-.527-.068zM101.12 86.05c-.198.206-.282.48-.399.73-.249.612-.446 1.246-.77 1.828-.487.945-1.077 1.839-1.544 2.792-.27.58-.503 1.193-.53 1.832-.008.323.044.65.186.946.12.187.423.177.568.024.159-.187.312-.38.429-.594.303-.548.536-1.127.772-1.702.35-.884.663-1.78.961-2.681.19-.61.374-1.223.497-1.848.054-.422.092-.852.022-1.274-.018-.094-.128-.156-.192-.053zm32.961 25.202c-.209.013-.42 0-.63.003-.003 1.448.01 2.896-.048 4.344-.02.292-.047.584-.077.875.083.134-.213.258-.221.08-.254-.393-.374-.844-.54-1.273-.108-.3-.219-.602-.383-.88-.202-.294-.734-.325-.948-.027-.18.238-.264.524-.372.794-.173.46-.314.936-.562 1.368.008.156-.293.138-.232-.021-.098-.697-.1-1.402-.116-2.103a281.55 281.55 0 0 1-.017-3.157c-.264 0-.528-.003-.79.02-.18.059-.241.25-.242.412.024 1.014.11 2.026.188 3.038.087 1.137.182 2.275.322 3.408.03.22.18.442.427.485.208.054.456-.016.576-.19.177-.212.251-.478.358-.723.323-.867.623-1.74.929-2.613.34.987.66 1.98 1.043 2.952.092.197.182.418.388.535.206.092.5.082.643-.105.152-.238.175-.522.226-.79.14-1.047.212-2.101.304-3.153.066-.858.146-1.717.165-2.577-.01-.208.025-.447-.134-.616a.366.366 0 0 0-.257-.086zm-19.296.003c-.42.012-.84.11-1.218.28-.492.223-.916.618-1.065 1.12-.128.386-.082.814.119 1.17.256.472.702.829 1.191 1.079.617.314 1.307.52 1.845.957.254.203.392.513.405.823.003.235.026.496-.108.705-.154.217-.439.296-.695.35-.413.079-.838.07-1.257.056a7.636 7.636 0 0 1-1.107-.128c-.184-.125-.546.012-.461.25.063.293.342.517.65.567.94.204 1.942.16 2.855-.136.356-.13.707-.31.953-.59.23-.31.259-.701.26-1.066-.01-.358-.085-.723-.268-1.04-.185-.283-.508-.44-.794-.617-.574-.326-1.201-.557-1.779-.876-.298-.167-.6-.377-.727-.693-.127-.282-.137-.623.03-.892.213-.305.6-.46.977-.49.494-.063.982.065 1.461.161.197.033.43.102.608-.02.188-.124.25-.428.053-.57-.229-.175-.529-.226-.807-.293a4.793 4.793 0 0 0-1.12-.107zm23.427 7.38c1.32-.003 2.642.012 3.963-.031.233-.012.583-.042.597-.326.035-.245-.215-.385-.446-.382-.342-.042-.689-.023-1.033-.033-.682-.005-1.364-.006-2.045-.005v-2.718c.852-.003 1.707.009 2.558-.034.252-.022.442-.302.309-.518-.11-.194-.364-.198-.567-.205-.767-.028-1.534-.018-2.3-.02v-2.33c.979-.004 1.96.012 2.937-.038.229-.01.445-.208.374-.432-.064-.203-.31-.27-.512-.274-1.157-.044-2.316-.032-3.473-.034h-.362v7.38zm8.484-3.69v3.69c1.321-.003 2.643.012 3.963-.032.228-.013.567-.035.594-.31.054-.256-.22-.403-.458-.4-.31-.03-.622-.02-.933-.03-.71-.01-1.42-.006-2.13-.005v-6.603h-1.036v3.69zm8.484 0v3.69c1.321-.003 2.643.012 3.963-.032.229-.013.567-.035.594-.31.054-.256-.22-.403-.458-.4-.31-.03-.622-.02-.932-.03-.71-.01-1.42-.006-2.13-.005v-6.603h-1.037v3.69zm-32.495-3.687c-.408.005-.819.009-1.223.068-.248.082-.299.426-.116.59.221.156.512.097.769.113l.576.003v5.825c-.402.002-.805-.006-1.206.032-.235.074-.324.385-.178.568.171.163.435.142.658.154.803.029 1.606.029 2.408.004.217-.016.45-.001.653-.085a.366.366 0 0 0 .064-.546c-.201-.15-.473-.111-.712-.127-.21-.016-.427.042-.63-.03-.06-.23.007-.466-.02-.699v-5.096c.401-.002.804.004 1.205-.03.25-.076.331-.411.16-.592-.197-.147-.46-.111-.695-.135-.57-.022-1.141-.019-1.712-.017zm-17.73.003c-.227.015-.476.065-.624.24-.24.393-.226.86-.245 1.298-.035 1.76-.014 3.518-.019 5.277v.559c.264-.007.53.017.793-.023.253-.122.22-.426.227-.652.016-.681.014-1.363.015-2.044.675-.004 1.368.034 2.018-.166.643-.186 1.23-.612 1.493-1.204.22-.492.255-1.046.142-1.567a2.028 2.028 0 0 0-1.218-1.394c-.594-.267-1.263-.332-1.914-.326-.223-.003-.446 0-.669.003zm.947.771c.5.015 1.023.144 1.4.467.504.401.664 1.139.345 1.685-.19.36-.512.657-.9.827-.476.164-.99.128-1.485.127-.119.054-.206-.06-.16-.16v-2.946h.8zm-16.708.58c-.018.118-.023.25.051.355.162-.115.128-.362-.02-.473l-.03.117zm1.471 5.189c.288.2.449.518.553.831.191.598.176 1.24.032 1.844-.034.155-.072.458-.3.415-.194-.1-.231-.326-.323-.498-.261-.584-.359-1.221-.374-1.851.003-.221.013-.45.099-.658.053-.135.194-.2.313-.083zm3.757 9.332c-.01.373-.019.748.013 1.12.008.019.011.154.024.053.08-.33.06-.673.056-1.01-.014-.168-.007-.343-.07-.504l-.024.341zm-3.746 20.577c.108.23.081.486.093.73.01 1.046-.13 2.089-.325 3.117-.116.605-.278 1.205-.536 1.772-.078.101-.09.27-.242.302-.1-.212-.043-.447-.073-.67-.011-1.113.127-2.223.333-3.318.119-.582.25-1.164.466-1.722.045-.114.104-.24.233-.287l.051.076zm-.096 13.17c.22 1.364.467 2.727.593 4.103.05.505.08 1.021-.033 1.521-.083.203-.243.402-.478.456-.259-.007-.467-.168-.686-.278a2.497 2.497 0 0 1-1.02-1.038c-.345-.652-.49-1.379-.555-2.099-.063-.829.052-1.66.252-2.467.247-1.034.6-2.042.922-3.057l.336-1.021.669 3.88z" fill="#a11" image-rendering="optimizeQuality"/>
</svg>