<?xml version="1.0" encoding="UTF-8"?>
<svg version="1.1" xmlns="http://www.w3.org/2000/svg" width="658" height="658">
<path d="M0 0 C217.14 0 434.28 0 658 0 C658 217.14 658 434.28 658 658 C440.86 658 223.72 658 0 658 C0 440.86 0 223.72 0 0 Z " fill="#030303" transform="translate(0,0)"/>
<path d="M0 0 C217.14 0 434.28 0 658 0 C658 217.14 658 434.28 658 658 C440.86 658 223.72 658 0 658 C0 440.86 0 223.72 0 0 Z M249.25 62.8125 C248.5079834 62.98571777 247.7659668 63.15893555 247.00146484 63.33740234 C245.44439949 63.70333059 243.88823613 64.07311859 242.33300781 64.44677734 C240.02603899 64.99382541 237.7136365 65.50858065 235.3984375 66.01953125 C196.30985485 74.89833344 159.11226955 93.20019294 127 117 C126.39929688 117.44230957 125.79859375 117.88461914 125.1796875 118.34033203 C118.27680444 123.44591174 111.75930572 128.86715761 105.46875 134.71484375 C103.41369168 136.61707337 101.32524989 138.44287668 99.1875 140.25 C89.19042604 148.97172708 80.19170606 158.57935486 72 169 C71.09548463 170.08327202 70.18775257 171.16386375 69.27734375 172.2421875 C60.44263381 182.8113643 53.12969194 194.23045559 46 206 C45.55495117 206.73395996 45.10990234 207.46791992 44.65136719 208.22412109 C15.20152275 257.34250671 3.89401234 316.58142037 13 373 C13.19263428 374.21373291 13.38526855 375.42746582 13.58374023 376.67797852 C15.30085663 386.91478142 18.1120867 396.61629841 21.4375 406.4375 C21.82941528 407.60563232 21.82941528 407.60563232 22.22924805 408.79736328 C37.91839557 455.29110175 67.30357851 500.35546207 107 530 C107.79736572 530.59603027 107.79736572 530.59603027 108.61083984 531.20410156 C152.51585938 563.8106792 204.73708808 579.90746549 259.40576172 572.91992188 C308.11497952 565.62055782 347.32304156 540.39793538 381.1875 505.8125 C383.75859609 503.18829385 386.33625955 500.57079152 388.91796875 497.95703125 C389.79282173 497.05728325 389.79282173 497.05728325 390.68534851 496.13935852 C392.08603472 494.72148806 393.5385013 493.35510149 395 492 C395.66 492 396.32 492 397 492 C398.41015625 493.46875 398.41015625 493.46875 400.0625 495.5 C422.37287449 521.52113493 458.16807228 530.02070066 490.96923828 532.85546875 C502.61542789 533.68433918 514.34092925 533.30888135 526 533 C526.95084473 532.98308105 527.90168945 532.96616211 528.88134766 532.94873047 C566.45940362 532.25513899 602.81218641 522.45291061 629.53125 494.8125 C651.03981571 470.30907071 652.83225496 436.01132157 651 405 C650.42739249 397.41939953 649.60870971 389.86524408 648.75 382.3125 C648.64767059 381.39890717 648.54534119 380.48531433 648.43991089 379.54403687 C646.4568114 362.14774421 643.36711503 345.02546138 638.75 328.125 C638.4519043 327.0326001 638.15380859 325.9402002 637.84667969 324.81469727 C627.09197372 286.32725653 608.974343 248.69871368 586 216 C585.49855469 215.28215332 584.99710938 214.56430664 584.48046875 213.82470703 C577.44363306 203.78951161 570.09324334 194.20280089 562 185 C561.36578125 184.26652344 560.7315625 183.53304687 560.078125 182.77734375 C558.39845863 180.83956352 556.70124984 178.91885419 555 177 C554.35828857 176.27345215 553.71657715 175.5469043 553.05541992 174.79833984 C547.53846339 168.60397288 541.81567478 162.66369004 535.9375 156.8125 C535.09123047 155.96236328 534.24496094 155.11222656 533.37304688 154.23632812 C528.4109919 149.28192474 523.33576993 144.54773545 518 140 C516.95516641 139.08788382 515.91086016 138.17516308 514.8671875 137.26171875 C507.8316454 131.2089482 500.60906182 125.63814169 492.97216797 120.3671875 C490.84755442 118.89431849 488.73843482 117.4006336 486.62890625 115.90625 C470.31534337 104.44150267 453.09247088 94.39872866 435 86 C434.24380371 85.64873047 433.48760742 85.29746094 432.70849609 84.93554688 C413.49744167 76.12805315 393.58810048 69.1689178 372.9375 64.625 C371.41854126 64.28529175 371.41854126 64.28529175 369.86889648 63.9387207 C348.99100958 59.63838344 327.97609683 58.52358712 306.70996094 58.66381836 C302.84289058 58.68769828 298.97650202 58.68430947 295.109375 58.67773438 C279.53250178 58.69499024 264.46102079 59.16957212 249.25 62.8125 Z " fill="#FEFEFE" transform="translate(0,0)"/>
<path d="M0 0 C6.48467892 2.38386446 8.96526951 10.22633065 12 16 C12.48710449 16.91974609 12.97420898 17.83949219 13.47607422 18.78710938 C25.65574686 41.95141118 34.99814549 65.79332378 42 91 C42.2573291 91.91297852 42.5146582 92.82595703 42.77978516 93.76660156 C54.24800569 135.00571252 67.31063462 192.65252996 47.62109375 232.8125 C34.13012913 256.33897781 13.01959986 267.65779519 -12 275.625 C-13.32354492 276.0593335 -13.32354492 276.0593335 -14.67382812 276.50244141 C-31.2131593 281.58404863 -48.18494115 282.5546563 -65.375 282.4375 C-66.31400146 282.43479095 -67.25300293 282.43208191 -68.22045898 282.42929077 C-82.19798407 282.36823343 -95.42934893 281.55757887 -109 278 C-110.66466922 277.60771451 -112.33005051 277.21843965 -113.99609375 276.83203125 C-135.46911971 271.69315146 -154.78738381 263.1434127 -171 248 C-171.57347168 247.51821289 -172.14694336 247.03642578 -172.73779297 246.54003906 C-174.43359375 245.0390625 -174.43359375 245.0390625 -177 242 C-177.27635057 236.37545305 -173.92788731 230.43520143 -171.875 225.25 C-160.39448015 195.37628045 -154.51018842 165.94126706 -158 134 C-157.38705078 133.9906543 -156.77410156 133.98130859 -156.14257812 133.97167969 C-143.21424818 133.72510346 -131.34531922 133.01222875 -119 129 C-118.35546875 128.79246094 -117.7109375 128.58492187 -117.046875 128.37109375 C-92.94653929 120.44834559 -71.98167485 106.15784134 -53.37890625 89.15625 C-51.22489491 87.20384564 -49.02972274 85.31722641 -46.8125 83.4375 C-42.80441567 79.92443804 -39.37604155 76.11810216 -36 72 C-35.59378418 71.51144531 -35.18756836 71.02289063 -34.76904297 70.51953125 C-19.55202364 52.13670425 -10.78915597 32.73868047 -4 10 C-1.22543353 1.22543353 -1.22543353 1.22543353 0 0 Z " fill="#FEFEFE" transform="translate(581,237)"/>
<path d="M0 0 C30.9480682 3.10740441 64.13941011 24.53039629 89 42 C90.29641593 42.8860887 91.59333064 43.77144789 92.890625 44.65625 C106.8645004 54.26469832 119.8919183 64.90764913 132.2890625 76.47265625 C134.93171199 78.93633668 137.6142499 81.34750404 140.3125 83.75 C155.88267338 97.75320705 174.43210077 116.51484847 176.20556641 138.5546875 C176.30457889 141.39406076 176.3289958 144.22145195 176.3125 147.0625 C176.30686035 148.07892578 176.3012207 149.09535156 176.29541016 150.14257812 C175.78617165 181.94729614 158.70458159 204.75593033 136.9375 226.4375 C136.43688049 226.93790802 135.93626099 227.43831604 135.42047119 227.95388794 C127.18646506 236.15340181 118.703867 243.57635193 109 250 C107.94425781 250.71671875 106.88851562 251.4334375 105.80078125 252.171875 C87.09915638 264.27982786 60.89808737 277.21962177 38 273 C33.97567259 269.32123201 32.37905674 264.46942419 30.4375 259.5 C20.76349334 235.84299035 7.92402726 214.32811161 -10 196 C-11.43091135 194.53460886 -12.84946834 193.05695292 -14.25 191.5625 C-14.81203125 190.98628906 -15.3740625 190.41007813 -15.953125 189.81640625 C-17 188 -17 188 -16.95703125 185.6484375 C-15.72814295 182.24767722 -13.72162609 179.80134806 -11.4375 177.0625 C16.29746916 142.17796186 21.43386711 93.48840259 17.05029297 50.42407227 C15.11856999 34.38581048 9.85960849 20.87007937 1.26953125 7.2578125 C-0.20580294 4.63398739 -0.25402192 2.96358906 0 0 Z " fill="#FEFEFE" transform="translate(387,84)"/>
<path d="M0 0 C2.87407742 0.00534576 5.74799772 0.00003699 8.62207031 -0.00634766 C30.25911292 -0.01652539 53.89375343 0.18623211 70.65332031 16.11474609 C89.79190591 36.86161619 96.66437632 65.47541856 95.93457031 93.09521484 C95.0806421 109.24148401 91.58742756 125.78906515 86.51269531 141.13037109 C85.97902344 142.92861328 85.97902344 142.92861328 85.43457031 144.76318359 C80.55936482 160.59135077 73.3543268 174.57025749 60.11816406 185.02099609 C55.84134728 186.84200954 52.50509964 185.9018887 48.25683594 184.25683594 C45.73407403 183.15809869 43.24806511 181.99865081 40.76269531 180.81787109 C38.97347376 179.99377031 37.18311779 179.17212774 35.39160156 178.35302734 C34.11760498 177.76932373 34.11760498 177.76932373 32.81787109 177.17382812 C18.0300682 170.48000589 2.22955059 168.14810066 -13.89746094 167.81396484 C-14.75037216 167.79318375 -15.60328339 167.77240265 -16.48204041 167.75099182 C-19.1712238 167.68629911 -21.86049359 167.62699009 -24.54980469 167.56787109 C-26.38770377 167.52460925 -28.22559455 167.4809927 -30.06347656 167.43701172 C-34.5380004 167.33070175 -39.01260996 167.22921548 -43.48730469 167.13037109 C-44.85760345 164.38977356 -44.97965701 161.79641319 -45.36230469 158.75537109 C-48.64106577 135.40013816 -58.77490903 114.17822897 -72.48730469 95.13037109 C-73.23496094 94.08494141 -73.98261719 93.03951172 -74.75292969 91.96240234 C-91.61251745 68.94476994 -113.00874718 55.16000868 -139.48730469 45.13037109 C-139.48730469 43.81037109 -139.48730469 42.49037109 -139.48730469 41.13037109 C-134.24081313 36.17614549 -126.82776612 33.07169851 -120.36230469 30.00537109 C-119.38729004 29.54235596 -118.41227539 29.07934082 -117.40771484 28.60229492 C-80.0317987 11.21659307 -41.44137015 -0.09165325 0 0 Z " fill="#FEFEFE" transform="translate(297.4873046875,72.86962890625)"/>
<path d="M0 0 C29.5578761 21.18233295 48.83454275 50.02801478 56.37109375 85.69921875 C57.10597473 90.53368578 57.36536788 94.88877107 56.37109375 99.69921875 C53.65703379 103.15855834 50.2773881 104.78711422 46.37109375 106.69921875 C43.99099942 107.89872145 41.61525866 109.10355214 39.24609375 110.32421875 C38.61759521 110.64495361 37.98909668 110.96568848 37.34155273 111.29614258 C26.98621767 116.78479478 18.09065654 124.83254675 9.91162109 133.14379883 C6.89607944 136.18849231 3.6573434 138.95334667 0.37109375 141.69921875 C-0.31339844 142.27285156 -0.99789062 142.84648437 -1.703125 143.4375 C-2.37988281 143.97761719 -3.05664062 144.51773438 -3.75390625 145.07421875 C-4.65496094 145.79738281 -4.65496094 145.79738281 -5.57421875 146.53515625 C-8.45732218 148.16854945 -10.28333626 148.67107093 -13.62890625 148.69921875 C-16.49154566 147.39067156 -18.95345155 145.59309345 -21.50390625 143.76171875 C-50.66589183 123.93118884 -86.01752707 115.42711212 -121.19140625 121.63671875 C-129.51235407 123.81018015 -137.26170248 128.00492371 -144.87988281 131.9206543 C-146.62890625 132.69921875 -146.62890625 132.69921875 -148.62890625 132.69921875 C-148.01222911 129.35465217 -147.33565777 126.02590266 -146.62890625 122.69921875 C-146.45746094 121.88066406 -146.28601563 121.06210937 -146.109375 120.21875 C-136.24351162 79.16402818 -99.84117511 22.25223089 -63.765625 -0.47460938 C-61.82335637 -1.6247905 -59.86365053 -2.72567014 -57.87890625 -3.80078125 C-56.97640137 -4.29046387 -56.97640137 -4.29046387 -56.05566406 -4.79003906 C-38.36291423 -13.87341363 -16.24678711 -10.59109111 0 0 Z " fill="#FDFDFD" transform="translate(181.62890625,143.30078125)"/>
<path d="M0 0 C9.73611437 7.47222873 9.73611437 7.47222873 12 12 C12.07002614 18.65248317 10.28404342 24.91756947 8.51733398 31.27392578 C4.8804476 44.55459776 4.1449308 58.32893727 3 72 C2.31599121 72.10022461 1.63198242 72.20044922 0.92724609 72.30371094 C-29.96841564 76.88584876 -55.53982729 85.60550031 -78 108 C-78.71671875 108.69351563 -79.4334375 109.38703125 -80.171875 110.1015625 C-85.29278792 115.40682828 -88.84298846 121.48158273 -92.41259766 127.88525391 C-94.91732346 132.35028906 -97.60071188 136.16598942 -101 140 C-103.52092891 139.02141156 -104.78667934 138.32979635 -106.2734375 136.03125 C-110.11090847 127.2132316 -113.10997823 118.16287249 -116 109 C-116.3609375 107.88109375 -116.721875 106.7621875 -117.09375 105.609375 C-126.16190578 75.91847784 -135.08128734 38.24941062 -121.8125 8.625 C-114.8765271 -4.01293836 -103.60525573 -12.70851362 -90 -17 C-60.37562914 -23.9940199 -25.26648822 -17.0765093 0 0 Z " fill="#FDFDFD" transform="translate(151,297)"/>
<path d="M0 0 C1.88912109 -0.05994141 1.88912109 -0.05994141 3.81640625 -0.12109375 C8.20243372 0.55549948 10.60272381 2.15629425 13.4375 5.4375 C15.08419685 7.79727078 16.42530678 10.26081396 17.75 12.8125 C18.52428641 14.24183765 19.30037452 15.67020056 20.078125 17.09765625 C20.66303711 18.18071045 20.66303711 18.18071045 21.25976562 19.28564453 C23.10127138 22.65028627 25.03424416 25.95672073 27 29.25 C27.36706055 29.86713867 27.73412109 30.48427734 28.11230469 31.12011719 C31.08195603 36.02934663 34.42068201 40.58604357 38.00390625 45.0703125 C39.72548952 47.91303583 40.07296303 49.17444777 39.4375 52.4375 C37.56640625 54.98828125 37.56640625 54.98828125 35 57.75 C15.01735126 80.35789738 8.65301367 111.02101399 10.4375 140.4375 C10.92278614 144.00657337 11.76782918 147.42107689 12.78125 150.87890625 C13.45441988 153.50346739 13.55455099 155.74045022 13.4375 158.4375 C7.68933637 157.96281294 3.80285099 156.36465204 -1.125 153.4375 C-1.81827393 153.03523193 -2.51154785 152.63296387 -3.22583008 152.21850586 C-5.34897934 150.97550376 -7.45802802 149.71183597 -9.5625 148.4375 C-10.18672852 148.05996582 -10.81095703 147.68243164 -11.45410156 147.29345703 C-23.21763113 140.10604874 -34.08124007 131.94230048 -44.22265625 122.58984375 C-46.52680584 120.47033386 -48.88245434 118.42314658 -51.25 116.375 C-65.50090099 103.66608132 -80.96517438 85.91248016 -82.1875 66.1875 C-81.87869084 54.78841393 -75.50127143 45.64187215 -67.7734375 37.71875 C-65.45541795 35.39613462 -65.45541795 35.39613462 -63.18359375 32.48828125 C-60.52273569 29.26278217 -57.54223059 26.6884449 -54.25 24.125 C-53.64462402 23.65352539 -53.03924805 23.18205078 -52.41552734 22.69628906 C-38.13021806 11.85915788 -18.20574667 0.31743353 0 0 Z " fill="#FDFDFD" transform="translate(145.5625,383.5625)"/>
<path d="M0 0 C9.74060029 4.62096737 19.69349905 7.27865314 30.37890625 8.59765625 C33.40789718 9.27929206 35.47024709 10.40466886 38 12.1875 C39.13066374 14.44882747 39.20750777 15.93424498 39.359375 18.44921875 C41.50811015 48.98117986 56.28071698 72.24761974 78.640625 92.58984375 C79.95807537 93.71062437 81.2893723 94.81574413 82.64453125 95.890625 C84 97.1875 84 97.1875 85 100.1875 C81.361497 101.47997493 77.71305898 102.74202222 74.0625 104 C73.06025391 104.35642578 72.05800781 104.71285156 71.02539062 105.08007812 C56.1995144 110.14597314 41.81874637 111.71060374 26.24414062 111.63354492 C23.63331213 111.62502712 21.0246777 111.653955 18.4140625 111.68554688 C1.17137371 111.7564832 -17.64151039 110.20411435 -30.8125 98 C-42.65146386 85.427649 -41.5080094 70.5816808 -41.13623047 54.33886719 C-40.22647486 33.29383959 -31.55299332 12.60033028 -16 -1.8125 C-10.61901746 -5.60364679 -5.30089149 -2.67072977 0 0 Z " fill="#FDFDFD" transform="translate(211,447.8125)"/>
<path d="M0 0 C1.39712274 1.95597184 2.71927629 3.9659094 4 6 C18.75066253 19.99807771 38.45123287 25.86372631 58.1875 26.5 C66.48654977 26.77243081 74.73075072 27.23499928 83 28 C83.495 29.485 83.495 29.485 84 31 C71.14102361 56.27111575 42.18626774 82.07298736 15.9765625 92.1640625 C9.07465895 94.10239237 1.54345978 94.13296834 -5.0625 91.1875 C-22.15810995 81.30756957 -32.07024994 64.8910401 -39 47 C-39.38414062 46.01 -39.76828125 45.02 -40.1640625 44 C-41.98583514 38.41550068 -42.31467695 32.89475247 -42.4375 27.0625 C-42.46005859 26.32765381 -42.48261719 25.59280762 -42.50585938 24.83569336 C-42.49130209 21.68586069 -42.27003725 19.43749052 -40.6015625 16.734375 C-36.66160699 14.10773799 -32.39295156 12.73154911 -27.9375 11.1875 C-20.67148916 8.57394299 -14.43535849 5.93577091 -8.25390625 1.25 C-5.3137519 -0.3805882 -3.30938412 -0.4108201 0 0 Z " fill="#FDFDFD" transform="translate(306,441)"/>
<path d="M0 0 C1.89453125 0.61328125 1.89453125 0.61328125 4 2 C5.01171875 4.79296875 5.01171875 4.79296875 5.6875 8.1875 C6.03361328 9.84845703 6.03361328 9.84845703 6.38671875 11.54296875 C7.44500285 17.50845555 8.13124751 23.2389709 8.16796875 29.3046875 C8.17229416 29.98154099 8.17661957 30.65839447 8.18107605 31.35575867 C8.19111353 33.52891184 8.19127375 35.7018285 8.1875 37.875 C8.18559662 38.98764725 8.18559662 38.98764725 8.18365479 40.12277222 C8.048807 81.31319986 8.048807 81.31319986 -5.00390625 94.453125 C-15.87018679 102.8739608 -27.83705051 102.9454191 -41 102 C-59.68866452 99.32251722 -75.58391601 89.8340413 -89 77 C-87.57799902 73.94644001 -85.8413635 71.16526634 -84.03051758 68.32958984 C-79.28261016 60.81198617 -75.83241453 53.19393723 -72.91552734 44.79101562 C-70.88240557 39.22015118 -69.09996156 36.16890816 -64 33 C-60.51171875 32.1015625 -60.51171875 32.1015625 -56.6875 31.625 C-37.05744745 28.59232498 -19.63670583 18.24371755 -5.609375 4.50390625 C-3 2 -3 2 0 0 Z " fill="#FDFDFD" transform="translate(402,354)"/>
<path d="M0 0 C10.19158062 0.52264516 18.62192913 9.7553719 26 16 C26.78632813 16.6496875 27.57265625 17.299375 28.3828125 17.96875 C34.36674077 23.05613152 39.23569271 28.769752 44 35 C44.64195312 35.83789062 45.28390625 36.67578125 45.9453125 37.5390625 C51.67841915 45.3569352 57.03806511 53.63790383 56.40625 63.66796875 C54.6366924 73.82590999 46.20892228 81.89862433 38.1875 87.75 C27.2148709 94.97962946 14.51460992 101.70292198 1 99 C-5.94144638 95.34199324 -9.16889216 88.05525868 -12.56445312 81.34130859 C-13.50416432 79.49180394 -14.4765863 77.66230743 -15.453125 75.83203125 C-16.05640625 74.66027344 -16.6596875 73.48851562 -17.28125 72.28125 C-17.82845703 71.21970703 -18.37566406 70.15816406 -18.93945312 69.06445312 C-20.17254377 65.5014343 -20.01006148 63.60029968 -19 60 C-17.64627897 57.68972402 -16.28183039 55.55585893 -14.75 53.375 C-6.19521931 40.59001846 1.17958702 22.95168238 1.125 7.3125 C1.12757813 6.56613281 1.13015625 5.81976563 1.1328125 5.05078125 C1.07425092 2.79899176 1.07425092 2.79899176 0 0 Z " fill="#FDFDFD" transform="translate(337,271)"/>
<path d="M0 0 C5.99826643 5.73747224 8.07740811 11.54759174 8.35375977 19.66308594 C8.49591874 33.63061343 4.71725897 48.2833858 -3.375 59.875 C-6.87241679 62.70624216 -9.71314608 62.44675538 -14 62 C-17.35921747 61.30331453 -20.60434599 60.34288201 -23.875 59.3125 C-25.19673218 58.90257812 -25.19673218 58.90257812 -26.54516602 58.484375 C-43.7888775 52.99549117 -43.7888775 52.99549117 -49 45 C-49.92097764 42.48044855 -50.658373 40.14153859 -51.3125 37.5625 C-54.78935446 25.40481623 -60.10130612 15.05875731 -69.21484375 6.1484375 C-71.22374924 3.73071754 -71.65862632 2.088619 -72 -1 C-68.56266618 -4.17627049 -65.18968516 -4.73022212 -60.6875 -5.1875 C-59.95257324 -5.26645508 -59.21764648 -5.34541016 -58.46044922 -5.42675781 C-13.5493303 -9.71461418 -13.5493303 -9.71461418 0 0 Z " fill="#FCFCFC" transform="translate(316,260)"/>
<path d="M0 0 C11.73244683 5.44433749 18.43155408 16.3805353 23 28 C23.94204763 31.73142769 24.66392143 35.18400301 24 39 C20.19691081 44.75721106 14.5960834 48.14862048 9 52 C8.01386719 52.70640625 7.02773437 53.4128125 6.01171875 54.140625 C5.05910156 54.79546875 4.10648438 55.4503125 3.125 56.125 C2.26132813 56.72570312 1.39765625 57.32640625 0.5078125 57.9453125 C-2 59 -2 59 -4.50390625 58.359375 C-7.04259089 56.97680496 -9.56420451 55.57951291 -12.0625 54.125 C-21.51374366 48.95714083 -30.08926254 46.59235401 -40.87109375 46.2734375 C-43.97136166 46.00250273 -46.19675416 45.30992796 -49 44 C-47.68698563 33.03831944 -35.3451871 22.72704698 -28 15 C-27.07574219 13.9790625 -27.07574219 13.9790625 -26.1328125 12.9375 C-19.5987783 5.93451598 -10.04017626 -1.77078451 0 0 Z " fill="#FCFCFC" transform="translate(229,271)"/>
<path d="M0 0 C4.93488747 4.80502201 4.50625916 10.01556996 4.62890625 16.66015625 C3.81306402 20.99273456 2.48258281 22.34482277 -1 25 C-4.3828125 26.37109375 -4.3828125 26.37109375 -8.125 27.4375 C-15.90359271 29.79936706 -22.56422722 33.29002007 -29.5 37.52734375 C-30.28375 37.99269531 -31.0675 38.45804687 -31.875 38.9375 C-32.89207031 39.56978516 -32.89207031 39.56978516 -33.9296875 40.21484375 C-36.61062636 41.23157717 -38.28394955 40.76181903 -41 40 C-42.50357202 34.872107 -42.18429525 29.67565079 -42.1875 24.375 C-42.19974609 23.33214844 -42.21199219 22.28929687 -42.22460938 21.21484375 C-42.23974504 13.13239985 -41.8779175 4.29960941 -38 -3 C-27.58992131 -9.94005246 -10.0864671 -5.69350722 0 0 Z " fill="#FBFBFB" transform="translate(212,337)"/>
<path d="M0 0 C4.375 2.8125 4.375 2.8125 5.625 4.6875 C6.35181423 10.53835458 4.09963559 14.92571986 1.75 20.125 C-2.22253436 29.05969301 -4.56379102 36.76155104 -5.03125 46.6015625 C-5.37010314 49.64353956 -6.09996083 51.92148761 -7.375 54.6875 C-12.69852055 54.30105184 -15.4914382 52.37508958 -19.1875 48.75 C-19.70449463 48.25781982 -20.22148926 47.76563965 -20.75415039 47.25854492 C-36.37782954 32.20396413 -36.37782954 32.20396413 -39.375 24.6875 C-39.48420443 18.35364306 -36.9831662 14.44944959 -32.71875 9.93359375 C-24.29444785 1.94086445 -11.52072444 -4.48028173 0 0 Z " fill="#FAFAFA" transform="translate(222.375,378.3125)"/>
<path d="M0 0 C1.11375 0.3403125 1.11375 0.3403125 2.25 0.6875 C2.32476562 1.24695313 2.39953125 1.80640625 2.4765625 2.3828125 C4.9729392 17.60581549 12.76164286 32.34797857 24.25 42.6875 C23.625 44.5625 23.625 44.5625 22.25 46.6875 C16.50776074 49.43838849 10.40777748 48.98238474 4.1875 48.9375 C2.57391602 48.94910156 2.57391602 48.94910156 0.92773438 48.9609375 C-0.11189453 48.95835937 -1.15152344 48.95578125 -2.22265625 48.953125 C-3.16375244 48.95086914 -4.10484863 48.94861328 -5.07446289 48.94628906 C-8.64509518 48.60092268 -11.5039303 47.56436387 -14.4375 45.5 C-18.91568194 39.31584398 -18.40660263 30.9433746 -17.75 23.6875 C-15.85032164 14.39386394 -11.69125016 7.37561235 -4.84375 0.87890625 C-2.75 -0.3125 -2.75 -0.3125 0 0 Z " fill="#FBFBFB" transform="translate(247.75,394.3125)"/>
<path d="M0 0 C3 1 3 1 4.16796875 3.29296875 C7.81161448 13.63757215 7.81161448 13.63757215 7 18 C4.27411646 23.45176708 0.07090219 26.80335324 -5 30 C-15.27222895 33.42407632 -27.43695281 29.05151999 -37 25 C-34.76738359 22.76738359 -32.58396446 21.91772877 -29.69262695 20.74169922 C-19.44345432 16.57154875 -10.53220926 11.23835388 -3 3 C-2 2 -1 1 0 0 Z " fill="#F8F8F8" transform="translate(313,365)"/>
<path d="M0 0 C5.3651584 0.16258056 9.16272848 3.57930076 13 7 C16.30169316 10.79694714 17.72188803 13.78759492 17.45703125 18.91796875 C16.59804358 22.83113479 14.3894961 25.84963803 12 29 C11.39800781 29.8146875 10.79601562 30.629375 10.17578125 31.46875 C7.81311134 34.21742163 5.37254579 36.19207916 2.4375 38.3125 C1.48746094 39.00988281 0.53742188 39.70726562 -0.44140625 40.42578125 C-3 42 -3 42 -6 42 C-6.51263917 35.46385055 -5.06323946 30.33776269 -2.97265625 24.1484375 C-1.24969518 18.57130247 -0.90162943 13.50980838 -1 7.6875 C-1.03726404 5.45864482 -1.04723001 3.22866627 -1 1 C-0.67 0.67 -0.34 0.34 0 0 Z " fill="#F9F9F9" transform="translate(286,331)"/>
<path d="M0 0 C4.96339572 -0.2991846 8.95348858 0.75939454 13.5625 2.4375 C20.96450543 5.0721121 27.50277082 6.18649883 35.3125 6.5625 C36.14845703 6.60568359 36.98441406 6.64886719 37.84570312 6.69335938 C39.89696935 6.79885307 41.9484648 6.89987315 44 7 C44 9 44 9 42.4609375 10.55078125 C41.77257812 11.13214844 41.08421875 11.71351563 40.375 12.3125 C39.64410156 12.93125 38.91320312 13.55 38.16015625 14.1875 C37.44730469 14.785625 36.73445313 15.38375 36 16 C35.44183594 16.495 34.88367188 16.99 34.30859375 17.5 C29.54266356 21.68107714 25.5789674 23.60259276 19.109375 23.359375 C13.78203587 22.45175426 10.29522211 19.65147181 7.01171875 15.46484375 C3.70380886 10.48585723 1.17479801 5.87399005 0 0 Z " fill="#F9F9F9" transform="translate(267,403)"/>
<path d="M0 0 C4.49292404 3.55254459 5.7416721 6.50043297 7 12 C7.20712798 14.73570333 7.32548412 17.33323883 7.3125 20.0625 C7.32861328 20.74376953 7.34472656 21.42503906 7.36132812 22.12695312 C7.36584156 26.82543994 6.38047649 29.97391707 4 34 C2.1875 33.9375 2.1875 33.9375 0 33 C-0.70986393 31.37745386 -1.40830051 29.74865244 -2.0390625 28.09375 C-5.16564224 21.28136488 -10.6425949 16.10388817 -16.49609375 11.60546875 C-18 10 -18 10 -18 6 C-15.9463858 4.79429093 -13.88444845 3.61093359 -11.8125 2.4375 C-11.23435547 2.09525391 -10.65621094 1.75300781 -10.06054688 1.40039062 C-6.31777924 -0.69302178 -4.07800141 -1.54168346 0 0 Z " fill="#F9F9F9" transform="translate(263,328)"/>
<path d="M0 0 C7.21380628 2.54604928 10.3465917 6.87612463 13.625 13.6875 C16.85616448 20.8500552 16.85616448 20.8500552 16.1875 25.125 C12.56208506 27.54194329 11.47264107 27.75983571 7.1875 27.125 C0.27671061 23.64560951 -4.33642214 19.55323359 -6.8125 12.125 C-7.37679734 5.0148535 -7.37679734 5.0148535 -5.1875 1.5625 C-2.8125 0.125 -2.8125 0.125 0 0 Z " fill="#F8F8F8" transform="translate(236.8125,349.875)"/>
<path d="M0 0 C3.32421876 1.41279297 4.62012452 2.99899922 6.5 6.0625 C6.9375 8.75 6.9375 8.75 6.5 11.0625 C3.00875983 13.38999345 1.60777749 13.56549316 -2.5 13.0625 C-5.2912125 11.07927007 -6.32597224 9.93263879 -7 6.5625 C-6.18112089 2.46810445 -4.3063055 0.10765764 0 0 Z " fill="#0C0C0C" transform="translate(406.5,263.9375)"/>
<path d="M0 0 C1.875 1.0625 1.875 1.0625 3 3 C3.6384 8.9584 3.6384 8.9584 1.8125 11.9375 C-0.70554428 13.41359492 -2.12476676 13.49089348 -5 13 C-7.3125 11.375 -7.3125 11.375 -9 9 C-9.45742277 5.79804064 -9.55468045 3.92446741 -7.875 1.125 C-5.11909116 -0.52854531 -3.14924548 -0.39365568 0 0 Z " fill="#060606" transform="translate(460,384)"/>
<path d="M0 0 C2.3125 1.5625 2.3125 1.5625 4 4 C4.375 7.625 4.375 7.625 4 11 C2 13 2 13 -0.875 13.3125 C-4.37867037 12.96213296 -5.73523555 12.70029608 -8 10 C-8.43729494 6.50164045 -8.69021039 4.12613274 -6.8125 1.0625 C-4.29445572 -0.41359492 -2.87523324 -0.49089348 0 0 Z " fill="#0B0B0B" transform="translate(435,221)"/>
<path d="M0 0 C1.875 1.1875 1.875 1.1875 3 3 C3.5 5.4375 3.5 5.4375 3 8 C0.875 10.375 0.875 10.375 -2 12 C-5.1875 12 -5.1875 12 -8 11 C-9.93846036 8.64013522 -10.0294705 7.41258694 -9.8125 4.375 C-8.14800453 -0.4904483 -4.52549273 -0.47140549 0 0 Z " fill="#0B0B0B" transform="translate(593,297)"/>
<path d="M0 0 C2 2 2 2 2.3125 4.875 C1.96494766 8.35052338 1.63661642 9.71493243 -1 12 C-4 12.5 -4 12.5 -7 12 C-9.35210784 9.88310295 -9.91810953 8.55958485 -10.375 5.4375 C-10 3 -10 3 -8.9375 1.1875 C-5.94449731 -0.646921 -3.42183337 -0.31107576 0 0 Z " fill="#060606" transform="translate(441,124)"/>
<path d="M0 0 C1 1 1 1 1.3125 4.875 C1.25777919 8.68493655 1.25777919 8.68493655 -0.6875 11.0625 C-3.63772095 12.25853552 -5.02043802 12.06958635 -8 11 C-9.8125 9.75 -9.8125 9.75 -11 8 C-11.41826612 5.21155919 -11.36703913 3.66525842 -10 1.1875 C-6.72002335 -0.75998613 -3.76545255 -0.24293242 0 0 Z " fill="#090909" transform="translate(515,371)"/>
<path d="M0 0 C2.30163882 3.45245824 2.34490322 4.94738713 2 9 C0 11 0 11 -3.4375 11.375 C-7 11 -7 11 -8.9375 9.3125 C-10.19214083 6.58181113 -10.45702746 4.97067849 -10 2 C-7.59684073 -2.24086929 -4.21511384 -1.07293807 0 0 Z " fill="#0A0A0A" transform="translate(563,342)"/>
<path d="M0 0 C1 1 1 1 1.25 4.3125 C0.99337817 8.09767206 0.56295176 9.33025858 -2 12 C-5.51121797 11.7073985 -6.80482666 11.1900372 -9.375 8.6875 C-11 6 -11 6 -11.0625 3.875 C-8.46837645 -0.70286509 -4.7841316 -1.59471053 0 0 Z " fill="#101010" transform="translate(172,251)"/>
<path d="M0 0 C3.47834631 0.43204723 5.05665878 1.69841105 7.3125 4.3125 C7.84488281 4.90675781 8.37726563 5.50101562 8.92578125 6.11328125 C10 8 10 8 9.79296875 10.10546875 C9 12 9 12 7 14 C3.67739695 13.85861264 1.67527229 13.54457442 -0.9375 11.4375 C-2.57143926 7.68905112 -1.78403038 4.98548776 -1 1 C-0.67 0.67 -0.34 0.34 0 0 Z " fill="#0B0B0B" transform="translate(106,338)"/>
<path d="M0 0 C2.625 0.375 2.625 0.375 4.9375 1.9375 C7.22251439 5.23807634 7.06162786 7.4453493 6.625 11.375 C5.965 12.035 5.305 12.695 4.625 13.375 C1.59947033 13.18188109 -0.63511831 12.81892901 -3.25 11.25 C-5.0259752 8.29004133 -4.68058381 5.73642192 -4.375 2.375 C-2.375 0.375 -2.375 0.375 0 0 Z " fill="#090909" transform="translate(272.375,190.625)"/>
<path d="M0 0 C1.9375 1.6875 1.9375 1.6875 3 4 C2.92230782 7.18537946 2.46882797 8.51442817 0.25 10.8125 C-2.43829187 12.23132071 -4.00288286 12.47322902 -7 12 C-9.31282587 8.53076119 -9.42478586 7.07794425 -9 3 C-6.79848461 -0.66919231 -4.00961374 -0.58473534 0 0 Z " fill="#0F0F0F" transform="translate(129,478)"/>
<path d="M0 0 C2 2 2 2 2.375 5.4375 C2 9 2 9 0.3125 11 C-2.60879364 12.26326211 -4.01798647 12.02016252 -7 11 C-9 9 -9 9 -9.375 5.5625 C-9 2 -9 2 -7.3125 0 C-4.39120636 -1.26326211 -2.98201353 -1.02016252 0 0 Z " fill="#0D0D0D" transform="translate(80,228)"/>
<path d="M0 0 C3.5 0.1875 3.5 0.1875 7 1 C9.43769218 4.65653827 9.23944439 6.69000101 9 11 C8 12 8 12 4.625 12.25 C1 12 1 12 -0.9375 10.9375 C-2.59162584 7.92115289 -2.30575763 5.36333392 -2 2 C-1.34 1.34 -0.68 0.68 0 0 Z " fill="#060606" transform="translate(120,228)"/>
<path d="M0 0 C3.5625 0.25 3.5625 0.25 6.5625 2.25 C6.08025148 8.6397929 6.08025148 8.6397929 3.8125 11.3125 C1.5625 12.25 1.5625 12.25 -1.0625 11.625 C-3.4375 10.25 -3.4375 10.25 -5.4375 7.25 C-5.6875 4.6875 -5.6875 4.6875 -5.4375 2.25 C-3.4375 0.25 -3.4375 0.25 0 0 Z " fill="#090909" transform="translate(59.4375,366.75)"/>
<path d="M0 0 C3.12372472 1.14282612 4.6130764 2.23829809 6.5625 4.9375 C6.5 7.5625 6.5 7.5625 5.5625 9.9375 C2.5625 11.9375 2.5625 11.9375 -0.5 11.6875 C-3.4375 10.9375 -3.4375 10.9375 -5.4375 8.9375 C-5.77411952 5.7732765 -5.93693411 3.75236618 -4.25 1 C-2.4375 -0.0625 -2.4375 -0.0625 0 0 Z " fill="#121212" transform="translate(255.4375,142.0625)"/>
<path d="M0 0 C2.625 0.375 2.625 0.375 4.9375 2.0625 C6.625 4.375 6.625 4.375 7 7 C6.625 9.375 6.625 9.375 4.625 11.375 C1.1875 11.75 1.1875 11.75 -2.375 11.375 C-4.375 9.6875 -4.375 9.6875 -5.375 7.375 C-5.08542725 3.32098155 -4.37195186 0.69030819 0 0 Z " fill="#0D0D0D" transform="translate(143.375,428.625)"/>
<path d="M0 0 C2.4375 0.8125 2.4375 0.8125 4.4375 2.8125 C4.484375 4.6875 4.484375 4.6875 4.1875 6.8125 C4.05601562 7.864375 4.05601562 7.864375 3.921875 8.9375 C3.4375 10.8125 3.4375 10.8125 1.4375 12.8125 C-1.0625 12.6875 -1.0625 12.6875 -3.5625 11.8125 C-5.70832965 8.9513938 -6.01231337 6.32104427 -5.5625 2.8125 C-3.86282344 0.12880016 -3.19877434 -0.23405666 0 0 Z " fill="#0B0B0B" transform="translate(445.5625,174.1875)"/>
<path d="M0 0 C3.73229119 -0.34718988 5.59957594 -0.23503152 8.875 1.6875 C11 4 11 4 11.4375 6.625 C11 9 11 9 9 11 C5.5 10.8125 5.5 10.8125 2 10 C-0.4294516 6.3558226 -0.16179575 4.28758728 0 0 Z " fill="#0E0E0E" transform="translate(214,104)"/>
</svg>
