<?xml version="1.0" encoding="UTF-8" standalone="no" ?>
<!DOCTYPE svg PUBLIC "-//W3C//DTD SVG 1.1//EN" "http://www.w3.org/Graphics/SVG/1.1/DTD/svg11.dtd">
<svg xmlns="http://www.w3.org/2000/svg" xmlns:xlink="http://www.w3.org/1999/xlink" version="1.1" width="1080" height="1080" viewBox="0 0 1080 1080" xml:space="preserve">
<desc>Created with Fabric.js 5.2.4</desc>
<defs>
</defs>
<g transform="matrix(1 0 0 1 540 540)" id="5a3b0771-9da2-41dd-806e-42861030388e"  >
<rect style="stroke: none; stroke-width: 1; stroke-dasharray: none; stroke-linecap: butt; stroke-dashoffset: 0; stroke-linejoin: miter; stroke-miterlimit: 4; fill: rgb(255,255,255); fill-rule: nonzero; opacity: 1;" vector-effect="non-scaling-stroke"  x="-540" y="-540" rx="0" ry="0" width="1080" height="1080" />
</g>
<g transform="matrix(1 0 0 1 540 540)" id="02b973e4-4a90-4d22-be10-1d3ee8031d06"  >
</g>
<g transform="matrix(5.01 0 0 5.01 540 540)"  >
<g style="" vector-effect="non-scaling-stroke"   >
		<g transform="matrix(1 0 0 1 0 0)" id="svg_2"  >
<path style="stroke: none; stroke-width: 1; stroke-dasharray: none; stroke-linecap: butt; stroke-dashoffset: 0; stroke-linejoin: miter; stroke-miterlimit: 4; fill: rgb(0,0,0); fill-rule: nonzero; opacity: 1;" vector-effect="non-scaling-stroke"  transform=" translate(-134.2, -131.77)" d="M 112 55.4 C 60.9 64.6 27.099999999999994 114 41.400000000000006 158.5 C 48.00000000000001 179 63.60000000000001 196.8 81.5 204.3 C 104.3 213.9 129.2 208.9 146.6 191.3 L 153.79999999999998 184.10000000000002 L 156.1 186.70000000000002 C 162.6 193.60000000000002 176.4 197.4 192.5 196.70000000000002 C 204.9 196.20000000000002 211.5 194.4 218.2 190.00000000000003 C 228.1 183.50000000000003 231.39999999999998 174.10000000000002 230 156.8 C 228.6 140.20000000000002 225.6 129.3 218.4 114.70000000000002 C 204.4 86.70000000000002 177.4 64.10000000000002 149.5 57.000000000000014 C 139.1 54.40000000000001 121.8 53.600000000000016 112 55.40000000000001 z M 140.6 60.6 C 149.6 64.3 154.7 78.2 152.2 92 C 150.2 103.1 147.7 109.2 143.7 112.8 C 141.29999999999998 115.1 141.1 115.1 138 113.5 C 131.5 110.1 126.3 108.9 118.9 108.9 L 111.2 108.9 L 110.60000000000001 104.5 C 109.60000000000001 98.2 104.60000000000001 88.9 98.9 82.6 C 94.5 77.8 89.9 74.8 83.5 72.5 C 81.5 71.9 81.5 71.8 83.4 70.5 C 86.10000000000001 68.4 99.60000000000001 62.9 106 61.2 C 117.7 58.1 133.9 57.800000000000004 140.6 60.6 z M 160.6 65.3 C 171.29999999999998 69.7 184 78.2 193.39999999999998 87.5 C 202.09999999999997 96.1 203.99999999999997 99.6 203.99999999999997 107.2 C 203.99999999999997 114.9 200.39999999999998 121.9 192.19999999999996 129.9 C 184.19999999999996 137.9 175.09999999999997 142.9 167.49999999999997 143.70000000000002 C 162.19999999999996 144.3 161.99999999999997 144.20000000000002 160.99999999999997 141.4 C 158.59999999999997 134.8 154.49999999999997 127.9 150.29999999999998 123.10000000000001 L 145.79999999999998 118.00000000000001 L 148.99999999999997 113.70000000000002 C 157.79999999999998 101.80000000000001 159.59999999999997 76.10000000000002 152.39999999999998 65.50000000000001 C 149.49999999999997 61.20000000000002 150.29999999999998 61.100000000000016 160.59999999999997 65.30000000000001 z M 86.39999999999999 78.39999999999999 C 90.99999999999999 80.3 97.19999999999999 86.1 100.89999999999999 91.8 C 103.99999999999999 96.7 107.3 107.1 106.39999999999999 109.4 C 106.1 110.10000000000001 103.99999999999999 111.60000000000001 101.69999999999999 112.60000000000001 C 99.49999999999999 113.60000000000001 95.1 116.9 92.1 119.9 C 87.6 124.2 86.3 125 85 124.10000000000001 C 76.8 118.10000000000001 69.5 115.60000000000001 59.8 115.7 C 55.199999999999996 115.7 51.9 116.3 49 117.8 L 44.9 119.8 L 45.6 116.7 C 47.300000000000004 108.5 58.2 90.9 66.2 83.30000000000001 C 72.7 77.10000000000001 79.3 75.4 86.4 78.4 z M 214.5 116.19999999999999 C 224.2 135 229.1 165.79999999999998 224.1 176.5 C 220.2 185 211.79999999999998 190.1 198.6 192.2 C 184.7 194.29999999999998 166.7 190.39999999999998 159.5 183.6 L 156 180.29999999999998 L 158.5 174.2 C 161.3 167.2 163.1 156.6 162.3 151.6 L 161.8 148.29999999999998 L 166.20000000000002 148.2 C 175.9 148 188.60000000000002 140.79999999999998 198.10000000000002 130.2 C 203.20000000000002 124.6 206.3 118.79999999999998 208.10000000000002 111.49999999999999 C 209.40000000000003 106.19999999999999 209.40000000000003 106.19999999999999 214.50000000000003 116.19999999999999 z M 127.8 114.1 C 131.1 115.19999999999999 132.2 117.3 132.2 122.5 C 132.2 125.7 129.6 132.5 127.89999999999999 133.5 C 127.49999999999999 133.8 124.49999999999999 133.2 121.3 132.1 C 116.39999999999999 130.4 115.39999999999999 129.7 114.89999999999999 127.3 C 114.19999999999999 123.7 111.6 118.7 109.6 117.1 C 106.19999999999999 114.19999999999999 108.19999999999999 113.39999999999999 118.6 113.1 C 122 113.1 126.1 113.5 127.8 114.1 z M 105.9 119.6 C 108.2 121.19999999999999 111 126.6 111 129.29999999999998 C 111 129.99999999999997 109.2 131.79999999999998 107 133.29999999999998 L 102.9 135.89999999999998 L 99.7 133.99999999999997 C 97.9 132.89999999999998 94.8 131.99999999999997 92.8 131.99999999999997 C 90.7 131.99999999999997 89 131.59999999999997 89 131.09999999999997 C 89 129.59999999999997 95.6 121.89999999999996 98.6 119.89999999999996 C 102.1 117.59999999999997 102.89999999999999 117.59999999999997 105.89999999999999 119.59999999999997 z M 141.7 121.3 C 148.29999999999998 126.39999999999999 153 132.9 153 136.8 C 153 141.4 144.3 148 138.2 148 C 135.6 148 134.89999999999998 147.3 132.6 142.6 L 129.9 137.2 L 132.4 133.6 C 134.9 129.9 137.5 120.6 136.4 118.89999999999999 C 135.3 117.1 137.6 118.1 141.70000000000002 121.3 z M 71.39999999999999 122.1 C 75.1 123.19999999999999 79.49999999999999 125.39999999999999 81.3 127 C 84.39999999999999 129.7 84.39999999999999 129.9 83.2 133.4 C 82.5 135.3 81.7 139.3 81.5 142.20000000000002 L 81.2 147.50000000000003 L 76.3 148.10000000000002 C 67.1 149.3 56.9 156.00000000000003 52.9 163.50000000000003 C 51.6 166.00000000000003 50.199999999999996 168.00000000000003 49.9 168.00000000000003 C 47.5 168.00000000000003 42 147.20000000000002 42 138.00000000000003 C 42 123.00000000000003 53.8 116.60000000000002 71.4 122.10000000000002 z M 114.39999999999999 135.6 C 116.19999999999999 136.29999999999998 116.69999999999999 144.4 114.99999999999999 145.5 C 114.49999999999999 145.8 113.99999999999999 145.5 113.99999999999999 144.7 C 113.99999999999999 144 112.59999999999998 142.1 110.99999999999999 140.5 L 107.99999999999999 137.6 L 110.19999999999999 136.29999999999998 C 112.99999999999999 134.79999999999998 112.49999999999999 134.89999999999998 114.39999999999999 135.6 z M 98.49999999999999 138 C 99.29999999999998 138.7 99.99999999999999 140.5 99.99999999999999 142.1 C 99.99999999999999 144.5 99.39999999999999 145.1 96.49999999999999 145.9 C 94.59999999999998 146.4 91.79999999999998 147.70000000000002 90.19999999999999 148.9 C 88.6 150 86.99999999999999 150.70000000000002 86.6 150.3 C 85.5 149.10000000000002 86 138.4 87.3 137.10000000000002 C 88.8 135.60000000000002 96.3 136.20000000000002 98.5 138.00000000000003 z M 123.79999999999998 137.6 C 126.89999999999998 139.79999999999998 126.59999999999998 143.29999999999998 122.89999999999998 146.4 C 118.69999999999997 150 117.99999999999997 149.70000000000002 119.69999999999997 144.8 C 120.49999999999997 142.4 120.99999999999997 139.5 120.69999999999997 138.3 C 120.19999999999997 135.60000000000002 120.79999999999997 135.5 123.79999999999997 137.60000000000002 z M 109.49999999999999 145 C 111.39999999999999 148.7 111.39999999999999 150 109.29999999999998 150 C 106.79999999999998 150 103.99999999999999 147 103.99999999999999 144.3 C 103.99999999999999 140.9 107.59999999999998 141.3 109.49999999999999 145 z M 157.39999999999998 146.1 C 158.29999999999998 150.6 158.09999999999997 160.9 156.99999999999997 165.4 C 155.89999999999998 170.5 153.19999999999996 173 148.29999999999998 173.70000000000002 C 143.29999999999998 174.4 135.2 171.8 131.49999999999997 168.4 L 128.89999999999998 166 L 130.79999999999998 163.2 C 131.89999999999998 161.7 133.29999999999998 158.79999999999998 133.89999999999998 156.7 C 134.89999999999998 153.7 135.59999999999997 153 137.79999999999998 153 C 141.49999999999997 153 149.99999999999997 148.8 152.89999999999998 145.6 C 155.99999999999997 142.29999999999998 156.59999999999997 142.29999999999998 157.39999999999998 146.1 z M 130.89999999999998 151.2 C 130.99999999999997 152.2 129.89999999999998 153.7 128.49999999999997 154.6 C 126.29999999999997 156.1 125.29999999999997 156.1 121.79999999999997 155.1 L 117.69999999999997 153.79999999999998 L 121.59999999999998 152.1 C 123.69999999999997 151.1 126.39999999999998 149.29999999999998 127.49999999999999 148.1 C 129.29999999999998 146 129.5 146 130.1 147.7 C 130.5 148.7 130.9 150.29999999999998 130.9 151.2 z M 102.89999999999998 151.29999999999998 C 103.69999999999997 152.29999999999998 103.49999999999997 153.6 101.99999999999997 156.49999999999997 C 100.89999999999998 158.69999999999996 99.99999999999997 161.89999999999998 99.99999999999997 163.69999999999996 C 99.99999999999997 165.49999999999994 99.59999999999997 166.99999999999997 99.19999999999997 166.99999999999997 C 97.39999999999998 166.99999999999997 89.99999999999997 159.19999999999996 89.99999999999997 157.29999999999998 C 89.99999999999997 152.49999999999997 99.89999999999998 147.79999999999998 102.89999999999998 151.29999999999998 z M 84.09999999999998 156.2 C 85.29999999999998 158.6 87.29999999999998 162 88.69999999999997 163.79999999999998 C 90.79999999999997 166.6 90.89999999999998 167.2 89.69999999999997 168.49999999999997 C 82.99999999999997 175.19999999999996 79.39999999999998 190.19999999999996 82.59999999999998 198.39999999999998 C 83.39999999999998 200.59999999999997 81.19999999999997 199.7 73.29999999999998 194.79999999999998 C 65.19999999999999 189.7 55.29999999999998 179.1 54.499999999999986 174.6 C 53.59999999999999 169.9 54.499999999999986 167.5 59.399999999999984 162.2 C 63.999999999999986 157.1 73.79999999999998 152 78.69999999999999 152 C 81.49999999999999 152 82.19999999999999 152.6 84.1 156.2 z M 109.99999999999997 156.5 C 109.99999999999997 158.7 113.49999999999997 165.3 115.49999999999997 167 C 116.79999999999997 168 116.79999999999997 168.5 115.79999999999997 169.1 C 113.79999999999997 170.4 106.59999999999997 170.2 105.19999999999997 168.79999999999998 C 103.29999999999997 166.89999999999998 103.79999999999997 160.6 106.09999999999998 157.6 C 108.39999999999998 154.7 109.99999999999999 154.2 109.99999999999999 156.5 z M 125.49999999999997 160 L 128.49999999999997 160 L 125.79999999999997 162.6 C 122.49999999999997 165.9 118.69999999999997 165.29999999999998 116.49999999999997 161 C 114.49999999999997 157.1 114.49999999999997 157 118.79999999999997 158.6 C 120.79999999999997 159.29999999999998 123.79999999999997 159.9 125.49999999999997 160 z M 127.29999999999997 170.5 C 127.69999999999997 171.3 130.29999999999995 173.1 133.19999999999996 174.6 C 137.39999999999995 176.79999999999998 139.89999999999995 177.4 145.19999999999996 177.4 C 148.99999999999997 177.5 151.99999999999997 177.70000000000002 151.99999999999997 178 C 151.99999999999997 179.8 142.09999999999997 190.5 137.79999999999998 193.5 C 130.49999999999997 198.4 126.29999999999998 198.3 121.09999999999998 193.1 C 117.19999999999997 189.2 113.99999999999999 181.9 113.99999999999999 176.9 C 113.99999999999999 174.5 114.59999999999998 173.9 117.79999999999998 173 C 119.79999999999998 172.4 122.39999999999998 171.3 123.39999999999998 170.5 C 125.89999999999998 168.6 126.59999999999998 168.6 127.29999999999998 170.5 z M 98.89999999999998 171.6 C 100.69999999999997 172.5 103.89999999999998 173.4 106.09999999999998 173.7 C 109.69999999999997 174.2 109.99999999999999 174.5 109.99999999999999 177.5 C 109.99999999999999 183.6 113.09999999999998 190.3 118.59999999999998 195.8 L 123.89999999999998 201.10000000000002 L 121.19999999999997 202.10000000000002 C 115.29999999999997 204.50000000000003 105.39999999999998 205.40000000000003 98.29999999999998 204.20000000000002 C 92.69999999999999 203.3 90.99999999999999 202.50000000000003 88.79999999999998 200.00000000000003 C 86.29999999999998 197.30000000000004 85.99999999999999 196.20000000000002 85.99999999999999 190.20000000000002 C 85.99999999999999 183.00000000000003 88.29999999999998 176.4 92.19999999999999 172.20000000000002 C 94.79999999999998 169.60000000000002 94.79999999999998 169.60000000000002 98.89999999999999 171.60000000000002 z" stroke-linecap="round" />
</g>
		<g transform="matrix(1 0 0 1 -33.4 -61.98)" id="svg_3"  >
<path style="stroke: none; stroke-width: 1; stroke-dasharray: none; stroke-linecap: butt; stroke-dashoffset: 0; stroke-linejoin: miter; stroke-miterlimit: 4; fill: rgb(0,0,0); fill-rule: nonzero; opacity: 1;" vector-effect="non-scaling-stroke"  transform=" translate(-100.8, -69.79)" d="M 99.2 69.7 C 99.60000000000001 71.8 102.5 72.2 102.5 70 C 102.5 69.2 101.7 68.4 100.7 68.2 C 99.3 67.9 98.9 68.3 99.2 69.7 z" stroke-linecap="round" />
</g>
		<g transform="matrix(1 0 0 1 -22.44 -50.52)" id="svg_4"  >
<path style="stroke: none; stroke-width: 1; stroke-dasharray: none; stroke-linecap: butt; stroke-dashoffset: 0; stroke-linejoin: miter; stroke-miterlimit: 4; fill: rgb(0,0,0); fill-rule: nonzero; opacity: 1;" vector-effect="non-scaling-stroke"  transform=" translate(-111.76, -81.25)" d="M 110.7 79.7 C 110.3 80 110 80.9 110 81.7 C 110 83.2 112.6 83.5 113.4 82.10000000000001 C 114.10000000000001 81.00000000000001 111.60000000000001 78.80000000000001 110.7 79.7 z" stroke-linecap="round" />
</g>
		<g transform="matrix(1 0 0 1 -17.17 -35.67)" id="svg_5"  >
<path style="stroke: none; stroke-width: 1; stroke-dasharray: none; stroke-linecap: butt; stroke-dashoffset: 0; stroke-linejoin: miter; stroke-miterlimit: 4; fill: rgb(0,0,0); fill-rule: nonzero; opacity: 1;" vector-effect="non-scaling-stroke"  transform=" translate(-117.04, -96.1)" d="M 115.5 94.9 C 114.7 96.4 115.8 98 117.6 98 C 118.5 98 119 97.3 118.8 96.3 C 118.39999999999999 94.3 116.39999999999999 93.5 115.5 94.89999999999999 z" stroke-linecap="round" />
</g>
		<g transform="matrix(1 0 0 1 31.91 -55.87)" id="svg_6"  >
<path style="stroke: none; stroke-width: 1; stroke-dasharray: none; stroke-linecap: butt; stroke-dashoffset: 0; stroke-linejoin: miter; stroke-miterlimit: 4; fill: rgb(0,0,0); fill-rule: nonzero; opacity: 1;" vector-effect="non-scaling-stroke"  transform=" translate(-166.12, -75.9)" d="M 164.4 75.1 C 164.1 75.69999999999999 164.20000000000002 76.6 164.8 77.19999999999999 C 166.10000000000002 78.49999999999999 168 77.39999999999999 168 75.39999999999999 C 168 73.8 165.4 73.49999999999999 164.4 75.1 z" stroke-linecap="round" />
</g>
		<g transform="matrix(1 0 0 1 34.3 -40.77)" id="svg_7"  >
<path style="stroke: none; stroke-width: 1; stroke-dasharray: none; stroke-linecap: butt; stroke-dashoffset: 0; stroke-linejoin: miter; stroke-miterlimit: 4; fill: rgb(0,0,0); fill-rule: nonzero; opacity: 1;" vector-effect="non-scaling-stroke"  transform=" translate(-168.5, -91)" d="M 167 91 C 167 92.1 167.7 93 168.5 93 C 169.3 93 170 92.1 170 91 C 170 89.9 169.3 89 168.5 89 C 167.7 89 167 89.9 167 91 z" stroke-linecap="round" />
</g>
		<g transform="matrix(1 0 0 1 30.71 -26.68)" id="svg_8"  >
<path style="stroke: none; stroke-width: 1; stroke-dasharray: none; stroke-linecap: butt; stroke-dashoffset: 0; stroke-linejoin: miter; stroke-miterlimit: 4; fill: rgb(0,0,0); fill-rule: nonzero; opacity: 1;" vector-effect="non-scaling-stroke"  transform=" translate(-164.92, -105.09)" d="M 163.7 103.6 C 162.29999999999998 105.1 163.1 107 165.1 107 C 166.5 107 167 106.5 166.79999999999998 105.3 C 166.49999999999997 103.5 164.79999999999998 102.6 163.7 103.6 z" stroke-linecap="round" />
</g>
		<g transform="matrix(1 0 0 1 22.71 -13.68)" id="svg_9"  >
<path style="stroke: none; stroke-width: 1; stroke-dasharray: none; stroke-linecap: butt; stroke-dashoffset: 0; stroke-linejoin: miter; stroke-miterlimit: 4; fill: rgb(0,0,0); fill-rule: nonzero; opacity: 1;" vector-effect="non-scaling-stroke"  transform=" translate(-156.92, -118.09)" d="M 155.7 116.6 C 154.29999999999998 118.1 155.1 120 157.1 120 C 158.5 120 159 119.5 158.79999999999998 118.3 C 158.49999999999997 116.5 156.79999999999998 115.6 155.7 116.6 z" stroke-linecap="round" />
</g>
		<g transform="matrix(1 0 0 1 -76.29 -24.88)" id="svg_10"  >
<path style="stroke: none; stroke-width: 1; stroke-dasharray: none; stroke-linecap: butt; stroke-dashoffset: 0; stroke-linejoin: miter; stroke-miterlimit: 4; fill: rgb(0,0,0); fill-rule: nonzero; opacity: 1;" vector-effect="non-scaling-stroke"  transform=" translate(-57.92, -106.89)" d="M 56.4 106.1 C 55.4 107.8 57.699999999999996 109.69999999999999 59.1 108.3 C 60.300000000000004 107.1 59.5 105 58 105 C 57.5 105 56.8 105.5 56.4 106.1 z" stroke-linecap="round" />
</g>
		<g transform="matrix(1 0 0 1 -62.17 -24.67)" id="svg_11"  >
<path style="stroke: none; stroke-width: 1; stroke-dasharray: none; stroke-linecap: butt; stroke-dashoffset: 0; stroke-linejoin: miter; stroke-miterlimit: 4; fill: rgb(0,0,0); fill-rule: nonzero; opacity: 1;" vector-effect="non-scaling-stroke"  transform=" translate(-72.04, -107.1)" d="M 70.5 105.9 C 69.7 107.4 70.8 109 72.6 109 C 73.5 109 74 108.3 73.8 107.3 C 73.39999999999999 105.3 71.39999999999999 104.5 70.5 105.89999999999999 z" stroke-linecap="round" />
</g>
		<g transform="matrix(1 0 0 1 -49 -17.9)" id="svg_12"  >
<path style="stroke: none; stroke-width: 1; stroke-dasharray: none; stroke-linecap: butt; stroke-dashoffset: 0; stroke-linejoin: miter; stroke-miterlimit: 4; fill: rgb(0,0,0); fill-rule: nonzero; opacity: 1;" vector-effect="non-scaling-stroke"  transform=" translate(-85.2, -113.87)" d="M 83.6 112.8 C 82.8 114.1 84.69999999999999 116.3 85.89999999999999 115.6 C 87.49999999999999 114.6 87.3 112 85.6 112 C 84.8 112 83.89999999999999 112.4 83.6 112.8 z" stroke-linecap="round" />
</g>
		<g transform="matrix(1 0 0 1 77.78 -3.99)" id="svg_13"  >
<path style="stroke: none; stroke-width: 1; stroke-dasharray: none; stroke-linecap: butt; stroke-dashoffset: 0; stroke-linejoin: miter; stroke-miterlimit: 4; fill: rgb(0,0,0); fill-rule: nonzero; opacity: 1;" vector-effect="non-scaling-stroke"  transform=" translate(-211.99, -127.78)" d="M 210 127.3 C 210 129.2 211 130 212.6 129.3 C 214.7 128.5 214.29999999999998 126.00000000000001 212 126.00000000000001 C 210.9 126.00000000000001 210 126.60000000000001 210 127.30000000000001 z" stroke-linecap="round" />
</g>
		<g transform="matrix(1 0 0 1 68.57 9.25)" id="svg_14"  >
<path style="stroke: none; stroke-width: 1; stroke-dasharray: none; stroke-linecap: butt; stroke-dashoffset: 0; stroke-linejoin: miter; stroke-miterlimit: 4; fill: rgb(0,0,0); fill-rule: nonzero; opacity: 1;" vector-effect="non-scaling-stroke"  transform=" translate(-202.78, -141.01)" d="M 201 141 C 201 142.1 201.6 143 202.3 143 C 204.20000000000002 143 205 142 204.3 140.4 C 203.5 138.3 201 138.70000000000002 201 141 z" stroke-linecap="round" />
</g>
		<g transform="matrix(1 0 0 1 53.91 18.13)" id="svg_15"  >
<path style="stroke: none; stroke-width: 1; stroke-dasharray: none; stroke-linecap: butt; stroke-dashoffset: 0; stroke-linejoin: miter; stroke-miterlimit: 4; fill: rgb(0,0,0); fill-rule: nonzero; opacity: 1;" vector-effect="non-scaling-stroke"  transform=" translate(-188.12, -149.9)" d="M 186.4 149.1 C 186.1 149.7 186.20000000000002 150.6 186.8 151.2 C 188.10000000000002 152.5 190 151.39999999999998 190 149.39999999999998 C 190 147.79999999999998 187.4 147.49999999999997 186.4 149.09999999999997 z" stroke-linecap="round" />
</g>
		<g transform="matrix(1 0 0 1 37.91 22.22)" id="svg_16"  >
<path style="stroke: none; stroke-width: 1; stroke-dasharray: none; stroke-linecap: butt; stroke-dashoffset: 0; stroke-linejoin: miter; stroke-miterlimit: 4; fill: rgb(0,0,0); fill-rule: nonzero; opacity: 1;" vector-effect="non-scaling-stroke"  transform=" translate(-172.12, -153.98)" d="M 170.5 153 C 169.7 154.4 170.8 156 172.6 156 C 173.4 156 174 155.1 174 154 C 174 151.9 171.6 151.2 170.5 153 z" stroke-linecap="round" />
</g>
		<g transform="matrix(1 0 0 1 -66.2 8.57)" id="svg_17"  >
<path style="stroke: none; stroke-width: 1; stroke-dasharray: none; stroke-linecap: butt; stroke-dashoffset: 0; stroke-linejoin: miter; stroke-miterlimit: 4; fill: rgb(0,0,0); fill-rule: nonzero; opacity: 1;" vector-effect="non-scaling-stroke"  transform=" translate(-68.01, -140.33)" d="M 66.4 139.4 C 65.60000000000001 141.5 68 143.4 69.4 142 C 70.10000000000001 141.3 69.80000000000001 140.4 68.7 139.3 C 67.2 137.8 67 137.8 66.4 139.4 z" stroke-linecap="round" />
</g>
		<g transform="matrix(1 0 0 1 -81.2 16.98)" id="svg_18"  >
<path style="stroke: none; stroke-width: 1; stroke-dasharray: none; stroke-linecap: butt; stroke-dashoffset: 0; stroke-linejoin: miter; stroke-miterlimit: 4; fill: rgb(0,0,0); fill-rule: nonzero; opacity: 1;" vector-effect="non-scaling-stroke"  transform=" translate(-53, -148.75)" d="M 51.2 148.7 C 51.400000000000006 149.7 52.2 150.5 53 150.5 C 53.8 150.5 54.6 149.7 54.8 148.7 C 55 147.5 54.5 147 53 147 C 51.5 147 51 147.5 51.2 148.7 z" stroke-linecap="round" />
</g>
		<g transform="matrix(1 0 0 1 -55.98 35.53)" id="svg_19"  >
<path style="stroke: none; stroke-width: 1; stroke-dasharray: none; stroke-linecap: butt; stroke-dashoffset: 0; stroke-linejoin: miter; stroke-miterlimit: 4; fill: rgb(0,0,0); fill-rule: nonzero; opacity: 1;" vector-effect="non-scaling-stroke"  transform=" translate(-78.22, -167.3)" d="M 76.7 166.5 C 76 168 76.8 169 78.7 169 C 79.4 169 80 168.4 80 167.6 C 80 165.7 77.3 164.79999999999998 76.7 166.5 z" stroke-linecap="round" />
</g>
		<g transform="matrix(1 0 0 1 -61.48 50.24)" id="svg_20"  >
<path style="stroke: none; stroke-width: 1; stroke-dasharray: none; stroke-linecap: butt; stroke-dashoffset: 0; stroke-linejoin: miter; stroke-miterlimit: 4; fill: rgb(0,0,0); fill-rule: nonzero; opacity: 1;" vector-effect="non-scaling-stroke"  transform=" translate(-72.73, -182)" d="M 71.7 180.6 C 70.3 182 71 184.1 72.8 183.79999999999998 C 73.7 183.6 74.5 182.79999999999998 74.5 182.1 C 74.5 180.5 72.7 179.6 71.7 180.6 z" stroke-linecap="round" />
</g>
</g>
</g>
</svg>